<svg xmlns="http://www.w3.org/2000/svg" viewBox="0 0 930.36 581.61"><defs><style>.cls-1{fill:#eb673a;}.cls-2{fill:#fdcb37;}.cls-3{fill:#fff;}.cls-4{fill:#eb6568;}.cls-5{fill:#35a8e0;}.cls-6{fill:#7c6f3f;}.cls-7{fill:#1d1d1b;}.cls-8{fill:#acf87f;}.cls-9{fill:#c5e08b;}</style></defs><title>showcase</title><g id="Layer_2" data-name="Layer 2"><path class="cls-1" d="M59.66,220.5c4.88,8.48-3.31,23.4-6.13,28.07a3.08,3.08,0,0,1-2.59,1.5c-5.46.1-22.48-.29-27.37-8.77-2.53-4.4-3.16-9.71-1.26-13.72,3.87-8.19,11.65-5.51,14.28-4.31a.67.67,0,0,0,.94-.55c.27-2.87,1.83-10.92,10.9-10.19C52.84,212.88,57.12,216.11,59.66,220.5Z" transform="translate(-21.2 -22.05)"/><path class="cls-1" d="M391.46,147c-7.27,15.72-37.2,19.11-46.82,19.8a5.47,5.47,0,0,1-4.82-2.22c-5.71-7.79-22.51-32.79-15.25-48.51,3.77-8.14,10.82-14.47,18.53-15.82,15.8-2.77,19.87,11.21,20.82,16.24a1.18,1.18,0,0,0,1.75.8c4.42-2.54,17.65-8.51,25.86,5.35C395.52,129.42,395.22,138.9,391.46,147Z" transform="translate(-21.2 -22.05)"/><path class="cls-1" d="M196.67,88c-2.23,22.63-37.89,39.76-49.54,44.78a7.18,7.18,0,0,1-6.93-.69c-10.45-7.19-42.09-30.95-39.86-53.59,1.15-11.73,7.16-22.62,16.16-27.63,18.4-10.25,29.49,5.33,32.83,11.16a1.55,1.55,0,0,0,2.52.24c4.39-5.06,18.23-18.18,34.39-4.53C194.1,64.42,197.83,76.3,196.67,88Z" transform="translate(-21.2 -22.05)"/><path class="cls-1" d="M79.72,569.5c0,13.51-20.18,25.62-26.78,29.23a4.26,4.26,0,0,1-4.14,0c-6.58-3.67-26.6-16-26.55-29.45,0-7,3-13.77,8-17.24,10.31-7.08,17.73,1.51,20,4.77a.93.93,0,0,0,1.51,0c2.31-3.24,9.76-11.76,20.07-4.59C76.89,555.69,79.75,562.5,79.72,569.5Z" transform="translate(-21.2 -22.05)"/><circle class="cls-2" cx="266.89" cy="214.99" r="40.66"/><path d="M269.75,234.62a18.39,18.39,0,0,0,35.68,8.92C305.6,242.85,269.92,233.93,269.75,234.62Z" transform="translate(-21.2 -22.05)"/><path d="M287.58,258a18.46,18.46,0,0,1-4.57-.57,18.9,18.9,0,0,1-13.75-22.9h0c.14-.57.18-.72,6.24.63,3.25.73,7.61,1.77,12.28,2.93,18.38,4.59,18.28,5,18.13,5.6A18.92,18.92,0,0,1,287.58,258Zm-17.43-22.88a17.89,17.89,0,0,0,34.7,8.67C301.67,242.43,273.59,235.41,270.15,235.09Z" transform="translate(-21.2 -22.05)"/><path d="M282.89,257.86a19.38,19.38,0,0,1-14.09-23.48c.29-1.15.37-1.46,19.15,3.24s18.71,5,18.42,6.15A19.38,19.38,0,0,1,282.89,257.86Zm-12.37-22.24a17.42,17.42,0,0,0,33.76,8.43C299.91,242.52,275.09,236.31,270.52,235.62Z" transform="translate(-21.2 -22.05)"/><circle class="cls-3" cx="285.74" cy="203.48" r="9.33"/><circle cx="285.74" cy="203.48" r="2.8"/><circle class="cls-3" cx="255.67" cy="195.96" r="9.33"/><circle cx="255.67" cy="195.96" r="2.8"/><circle class="cls-2" cx="585.86" cy="311.71" r="68.36"/><circle class="cls-3" cx="611.92" cy="285.24" r="15.69"/><circle cx="611.92" cy="285.24" r="4.71"/><circle class="cls-3" cx="559.8" cy="285.24" r="15.69"/><circle cx="559.8" cy="285.24" r="4.71"/><path d="M570.46,336.06c2.38,19.31,16,36.57,36.64,36.57s34.23-17.26,36.57-36.57c.63-5.22-7.57-5.17-8.19,0-1.57,12.92-11.94,28.38-28.38,28.38S580.24,349,578.65,336.06c-.64-5.16-8.83-5.23-8.19,0Z" transform="translate(-21.2 -22.05)"/><circle class="cls-2" cx="382.98" cy="517.22" r="45.58"/><circle class="cls-3" cx="406.15" cy="508.47" r="10.46"/><circle cx="406.15" cy="508.47" r="3.14"/><circle class="cls-3" cx="374.58" cy="493.92" r="10.46"/><circle cx="374.58" cy="493.92" r="3.14"/><ellipse cx="396.12" cy="556.77" rx="13.78" ry="7.96" transform="translate(-296.54 661.4) rotate(-65.25)"/><path d="M389.89,570.28c-4.61-2.13-5.49-9.72-2-17.3s9.83-11.84,14.44-9.72,5.49,9.72,2,17.3S394.5,572.4,389.89,570.28Zm11.54-25c-3.38-1.55-8.67,2.41-11.55,8.66s-2.46,12.84.92,14.4,8.67-2.41,11.55-8.65S404.81,546.8,401.43,545.24Z" transform="translate(-21.2 -22.05)"/><circle class="cls-2" cx="828.48" cy="427.45" r="31.61"/><circle class="cls-3" cx="838.85" cy="413.76" r="7.26"/><circle cx="838.85" cy="413.76" r="2.18"/><circle class="cls-3" cx="814.95" cy="416.87" r="7.26"/><circle cx="814.95" cy="416.87" r="2.18"/><ellipse cx="851.41" cy="462.76" rx="5.52" ry="9.56" transform="translate(-73.83 91.77) rotate(-7.42)"/><path d="M852.74,473c-3.49.45-6.81-3.69-7.56-9.42s1.4-10.59,4.89-11.05,6.82,3.69,7.56,9.42S856.23,472.53,852.74,473Zm-2.47-19c-2.56.33-4.2,4.61-3.59,9.34s3.3,8.45,5.86,8.11,4.21-4.61,3.59-9.34S852.83,453.69,850.27,454Z" transform="translate(-21.2 -22.05)"/><circle class="cls-4" cx="830.63" cy="155.46" r="50.03"/><path d="M884.7,190.5c-12.15-20.53-53.81-5.93-50.33,17.73.56,3.8,6.54,3.4,6-.42-2.63-17.86,30.25-29.4,39.43-13.89,2,3.32,6.88-.11,4.92-3.42Z" transform="translate(-21.2 -22.05)"/><path class="cls-3" d="M819,176.17a11.47,11.47,0,0,0,22.16-5.6l-21.25-3.88A11.38,11.38,0,0,0,819,176.17Zm9.69-7.06a3.45,3.45,0,1,1-2.1,4.39A3.45,3.45,0,0,1,828.65,169.11Z" transform="translate(-21.2 -22.05)"/><circle cx="808.59" cy="150.3" r="3.45"/><path d="M811.36,168.29l29.23,5.33c3.8.7,4.93-5.19,1.14-5.88L812.5,162.4c-3.8-.69-4.93,5.19-1.14,5.89Z" transform="translate(-21.2 -22.05)"/><path class="cls-3" d="M870,149l-14.13,16.35A11.47,11.47,0,1,0,870,149Zm-3,13.89a3.45,3.45,0,1,1,2.11-4.39A3.44,3.44,0,0,1,866.92,162.93Z" transform="translate(-21.2 -22.05)"/><circle cx="844.57" cy="137.63" r="3.45"/><path d="M873,141.08l-19.43,22.48c-2.52,2.92,2,6.8,4.57,3.88L877.59,145c2.52-2.92-2-6.8-4.57-3.88Z" transform="translate(-21.2 -22.05)"/><path class="cls-5" d="M888,568.75v31.43c0,4.41,6.85,4.42,6.85,0V568.75c0-4.41-6.85-4.42-6.85,0Z" transform="translate(-21.2 -22.05)"/><path class="cls-5" d="M916.27,567.61c9-15.66,5.74-20.46,5.74-20.46l-12.57,20.46H902.7v33.71h26a11.94,11.94,0,0,0,11.12-7.6l3.44-26.11Z" transform="translate(-21.2 -22.05)"/><path class="cls-5" d="M918.25,568.76c2.93-5.33,9.63-16.24,5.73-22.76a2.3,2.3,0,0,0-3.94,0l-8.59,14c-.85,1.39-2.33,5.17-3.76,6.12,1.85-1.23-3.44-.77-5-.77a2.32,2.32,0,0,0-2.29,2.29v33.71a2.32,2.32,0,0,0,2.29,2.29h18.19c5.54,0,11.42.69,16.17-2.76,5.34-3.87,5.31-9.05,6.09-15l2.4-18.26a2.31,2.31,0,0,0-2.28-2.29h-27c-2.94,0-2.94,4.57,0,4.57h27L941,567.61c-1.17,8.88.31,26.11-8.81,30-8.54,3.61-20.27,1.47-29.47,1.47l2.28,2.28V567.61l-2.28,2.28c6,0,7.63.64,10.68-4.32L924,548.31H920c2.71,4.55-3.9,14.81-5.74,18.15C912.88,569,916.83,571.34,918.25,568.76Z" transform="translate(-21.2 -22.05)"/><path class="cls-1" d="M895.43,50.33l-8.16-10a.7.7,0,0,0-.81-.21l-11.92,5a.7.7,0,0,1-.71-1.18l10-8.17a.68.68,0,0,0,.21-.8l-5-11.93a.69.69,0,0,1,1.18-.7l8.17,10a.68.68,0,0,0,.8.2l11.93-5a.69.69,0,0,1,.7,1.18l-10,8.16a.69.69,0,0,0-.2.81l5,11.92A.7.7,0,0,1,895.43,50.33Z" transform="translate(-21.2 -22.05)"/><path class="cls-1" d="M944.89,259.55l-8.16-10a.7.7,0,0,0-.81-.2l-11.93,5a.69.69,0,0,1-.7-1.18l10-8.16a.69.69,0,0,0,.2-.81l-5-11.92a.7.7,0,0,1,1.18-.71l8.16,10a.71.71,0,0,0,.81.2l11.92-5a.7.7,0,0,1,.71,1.18l-10,8.17a.68.68,0,0,0-.2.8l5,11.93A.69.69,0,0,1,944.89,259.55Z" transform="translate(-21.2 -22.05)"/><path class="cls-1" d="M520.26,54.46l-8.17-10a.68.68,0,0,0-.8-.2l-11.93,5a.69.69,0,0,1-.7-1.18l10-8.16a.69.69,0,0,0,.2-.81l-5-11.92a.7.7,0,0,1,1.18-.71l8.16,10a.7.7,0,0,0,.81.21l11.92-5a.7.7,0,0,1,.71,1.18l-10,8.17a.7.7,0,0,0-.21.8l5,11.93A.69.69,0,0,1,520.26,54.46Z" transform="translate(-21.2 -22.05)"/><circle class="cls-2" cx="71.29" cy="254.13" r="31.31"/><path d="M79.48,282a14.16,14.16,0,0,0,27-8.54C106.32,272.93,79.32,281.46,79.48,282Z" transform="translate(-21.2 -22.05)"/><path d="M93,292.39a14.69,14.69,0,0,1-14-10.25l-.08-.28.21-.24c.83-.92,26.24-8.95,27.43-8.68l.29.07.11.29a14.66,14.66,0,0,1-9.56,18.4A14.73,14.73,0,0,1,93,292.39Zm-12.89-10.2a13.66,13.66,0,0,0,26-8.23C103.16,274.49,82.8,280.93,80.08,282.19Z" transform="translate(-21.2 -22.05)"/><path d="M97.48,291.94a14.93,14.93,0,0,1-18.71-9.73c-.28-.87-.35-1.1,13.86-5.6s14.3-4.26,14.57-3.39A14.93,14.93,0,0,1,97.48,291.94Zm-17.09-9.61a13.41,13.41,0,0,0,25.55-8.08C102.46,275,83.67,280.94,80.39,282.33Z" transform="translate(-21.2 -22.05)"/><circle class="cls-3" cx="79.02" cy="238.97" r="7.19"/><circle cx="79.02" cy="238.97" r="2.16"/><circle class="cls-3" cx="56.26" cy="246.16" r="7.19"/><circle cx="56.26" cy="246.16" r="2.16"/><path d="M81.83,265.67c1.15,2-.78,5.53-1.45,6.64a.73.73,0,0,1-.61.35c-1.29,0-5.32-.07-6.47-2.07a3.61,3.61,0,0,1-.3-3.25,2.36,2.36,0,0,1,3.37-1,.16.16,0,0,0,.23-.13,2.35,2.35,0,0,1,2.57-2.41A3.62,3.62,0,0,1,81.83,265.67Z" transform="translate(-21.2 -22.05)"/><path d="M104.59,258.48c1.16,2-.78,5.53-1.45,6.64a.73.73,0,0,1-.61.35c-1.29,0-5.32-.07-6.47-2.07a3.61,3.61,0,0,1-.3-3.25,2.37,2.37,0,0,1,3.38-1,.15.15,0,0,0,.22-.13,2.36,2.36,0,0,1,2.58-2.41A3.62,3.62,0,0,1,104.59,258.48Z" transform="translate(-21.2 -22.05)"/></g><g id="Layer_3" data-name="Layer 3"><path class="cls-6" d="M832,89.16c-4.73,3.74-47.86,2.9-14.5,7.56,2.67.38,2.59,3.23-.1,3.53-32.8,3.62-36.84,3.84-14.12,14.72,2.28,1.09.78,3.69-1.86,3.24-27.84-4.73-33.41,2.83-20.13,12.52,1.84,1.34-.09,3.59-2.52,2.94-23.59-6.29-28.91-6.4-18.14,5.21,1.5,1.61-1.11,3.57-3.32,2.5-24.35-11.83-30.89-11.5-26.39,6.56.45,1.8-2.59,2.89-4.2,1.5-18-15.57-25.8-14.93-32,2.85-.58,1.69-3.73,1.83-4.58.21-7.94-15-15.77-19.21-32-3-1.48,1.48-4.64.56-4.34-1.27,2.93-18.09-3.87-21.33-27.71-6.88-2,1.24-4.9-.53-3.64-2.25,11.12-15.11,4.62-15.86-25.58-7.63-2.55.69-4.47-1.79-2.35-3.07,17.21-10.38,16.67-13.58-2.74-10.83-2.69.38-4-2.31-1.63-3.31,8.6-3.62,1.08-4.4-23-5.36-2.76-.11-3.16-3-.49-3.52,28.66-5.46,26.42-8-6.72-14.09-2.61-.48-2.37-3.29.3-3.51,31.86-2.73,34.92-2.32,9.76-7.71-2.73-.58-2.1-3.57.74-3.5,28.7.69,31.33.28,11.79-12.12-2-1.3-.12-3.73,2.41-3,27.33,7.49,31.48,3.22,16.27-10.14-1.64-1.44.5-3.53,2.83-2.78,25.93,8.37,31.4,10.29,22.19-7-.87-1.62,1.62-3.1,3.59-2.14,20.64,10.07,27.71,7.72,28.41-4.85.09-1.57,2.69-2.29,4.16-1.16C674.84,43,682.28,45.92,690,33.24c.9-1.49,3.8-1.41,4.5.14,6.42,14.16,14,16.43,28.92,2.76,1.48-1.36,4.46-.48,4.27,1.27-1.52,13.92,3.22,14.38,17.47,7.57,4-1.92,9.18.71,8.14,4.15-1.94,6.4,4.18,7.23,20.71,3.62,3.33-.72,5.69,2.34,3.17,4.11-8.18,5.73-2.63,6.44,17.43,3.82,2.62-.35,4,2.25,1.69,3.28-15.87,7.21-12,10.11,12.87,7.58,2.61-.27,3.83,2.31,1.56,3.3C784.19,86.47,833.89,87.66,832,89.16Z" transform="translate(-21.2 -22.05)"/><path class="cls-7" d="M610.87,93.41a33.83,33.83,0,0,0,6.75,0c2.24-.17,4.46-.44,6.67-.75l-.24-1.46c-2.18.41-4.36.79-6.55,1.08a35.32,35.32,0,0,1-6.56.41Z" transform="translate(-21.2 -22.05)"/><path class="cls-7" d="M606.71,91.19l.36-.16A2.84,2.84,0,0,0,609,92.4l-.18.56A3.33,3.33,0,0,1,606.71,91.19Z" transform="translate(-21.2 -22.05)"/><polygon class="cls-7" points="605.42 69.39 604 68.71 605.12 66.28 606.63 67.03 605.42 69.39"/><path class="cls-7" d="M653.21,101a11.53,11.53,0,0,0,1.32,2.59,2.75,2.75,0,0,0,1.56,1.16,1.93,1.93,0,0,0,1.22-.13,2.13,2.13,0,0,0,.45-.26,1.81,1.81,0,0,0,.35-.3l-1.26-1.34a.49.49,0,0,1-.15.12s-.1.09-.12.07,0,0-.05,0a1.43,1.43,0,0,1-.42-.46,10.17,10.17,0,0,1-1-2.15Z" transform="translate(-21.2 -22.05)"/><polygon class="cls-7" points="631.37 77.08 633.43 76.49 633.71 77.47 631.71 78.12 631.37 77.08"/><path class="cls-7" d="M658.73,103.28l-1.46-1a6.42,6.42,0,0,0,.51-.8l1.54.85A9.65,9.65,0,0,1,658.73,103.28Z" transform="translate(-21.2 -22.05)"/><path class="cls-7" d="M676.26,89.72a16.34,16.34,0,0,0,.78-2.33c.21-.83.37-1.52.54-2.27l-.89-.19c-.16.71-.34,1.49-.51,2.11a18.78,18.78,0,0,1-.61,1.93Z" transform="translate(-21.2 -22.05)"/><path class="cls-7" d="M675.2,91l-.48-.93a1.4,1.4,0,0,0,.6-.53l.61.84A1.84,1.84,0,0,1,675.2,91Z" transform="translate(-21.2 -22.05)"/><polygon class="cls-7" points="656.52 62.41 655.64 62.22 655.83 61.34 656.71 61.53 656.52 62.41"/><path class="cls-7" d="M706.17,102.69c.32.83.66,1.66,1,2.51a16.47,16.47,0,0,0,1.34,2.59l2.21-1.53a13.71,13.71,0,0,1-1.13-2.14c-.36-.78-.7-1.59-1.05-2.41Z" transform="translate(-21.2 -22.05)"/><polygon class="cls-7" points="684.25 78.91 686.61 77.93 687.03 78.92 684.65 79.89 684.25 78.91"/><path class="cls-7" d="M709.2,108.64l1.84-2c.15.11,0,0-.17,0l.44,2.68a1.63,1.63,0,0,1-.66,0,1.56,1.56,0,0,1-.61-.17A3.13,3.13,0,0,1,709.2,108.64Z" transform="translate(-21.2 -22.05)"/><path class="cls-7" d="M722.88,109.46a3.55,3.55,0,0,0,1.76-1.08,8.71,8.71,0,0,0,.85-1.16,18.72,18.72,0,0,0,1.13-2.23l-2.88-1.26a16.12,16.12,0,0,1-.92,1.86,4.8,4.8,0,0,1-.48.69c-.13.15-.26.19-.11.15Z" transform="translate(-21.2 -22.05)"/><path class="cls-7" d="M720,108.37l2.26-2.08c.11.12.24.21.2.17l-1.21,2.85A3.61,3.61,0,0,1,720,108.37Z" transform="translate(-21.2 -22.05)"/><polygon class="cls-7" points="705.72 82.29 702.8 81.09 703.13 80.27 706.08 81.41 705.72 82.29"/><path class="cls-7" d="M739.21,87a25.44,25.44,0,0,1,1.24-2.56,5,5,0,0,1,.64-.94l.1-.1s0,0,0,0a.36.36,0,0,1-.26,0,.43.43,0,0,1-.29-.06.06.06,0,0,1-.06,0,.48.48,0,0,0,.09.11c.06.06.16.28.25.4a11.27,11.27,0,0,1,.49,1.19c.3.87.54,1.81.77,2.76.39,2,.73,3.9,1.16,5.91a62.25,62.25,0,0,0,1.58,6l2.69-.86c-.56-1.84-1-3.82-1.38-5.73s-.71-4-1.07-6a29,29,0,0,0-.83-3.09,12.23,12.23,0,0,0-.64-1.61,6.84,6.84,0,0,0-.56-.89c-.13-.16-.26-.32-.4-.47a4.79,4.79,0,0,0-.69-.49,3.2,3.2,0,0,0-1-.27,3.49,3.49,0,0,0-1,.19,4.14,4.14,0,0,0-.69.39l-.47.41a8.6,8.6,0,0,0-1.12,1.54,28.35,28.35,0,0,0-1.42,2.88Z" transform="translate(-21.2 -22.05)"/><path class="cls-7" d="M735.61,95l-2.76-1.67a34.16,34.16,0,0,0,2-4.16l3,1.26A36,36,0,0,1,735.61,95Z" transform="translate(-21.2 -22.05)"/><path class="cls-7" d="M746.51,103.42l2.27-1.55a1.24,1.24,0,0,0,.23.31c.08.12.12.11.15.16s-.21,0-.11,0a4.17,4.17,0,0,0,1.14-1.28l2.2,1.43a12.62,12.62,0,0,1-.81,1.13,4.84,4.84,0,0,1-.55.57l-.33.28-.45.27a2.18,2.18,0,0,1-.55.21,1.84,1.84,0,0,1-.64.08,2.55,2.55,0,0,1-1.25-.33,3.69,3.69,0,0,1-.78-.63A4.06,4.06,0,0,1,746.51,103.42Z" transform="translate(-21.2 -22.05)"/><path class="cls-7" d="M767.41,82.41a1.42,1.42,0,0,1,.74-.5,1.06,1.06,0,0,1,.79.29l.93-1.14a2.55,2.55,0,0,0-1.88-.69,2.89,2.89,0,0,0-1.75.93Z" transform="translate(-21.2 -22.05)"/><path class="cls-7" d="M766.91,83.12l-1.39-.88.38-.54,1.29,1Z" transform="translate(-21.2 -22.05)"/><path class="cls-7" d="M769.19,82.44l1-1c.16.16.28.34.42.51l-1.13.88A4.17,4.17,0,0,0,769.19,82.44Z" transform="translate(-21.2 -22.05)"/><path class="cls-7" d="M783.2,90.21h.19l.08-.29a1.06,1.06,0,0,0-.29,0Z" transform="translate(-21.2 -22.05)"/><polygon class="cls-7" points="761.92 68.17 761.89 67.84 761.94 67.83 761.97 68.16 761.92 68.17"/><path class="cls-7" d="M783.4,90.21l.12-.28a.21.21,0,0,1,.11.1l-.27.13S783.38,90.2,783.4,90.21Z" transform="translate(-21.2 -22.05)"/><path class="cls-7" d="M632.72,89.19l2.12-.5-.1-.41-.11-.4-.22-.82-.12-.41-.13-.41-.26-.82-.06-.2-.08-.21-.15-.4-.15-.41-.08-.2-.09-.21-.37-.8-.27-.55h-.07l-.07,0-.13,0-.13,0-.12,0-.16,0-.18,0h-.52l-.17,0-.17,0-.16,0-.08,0-.07,0-.29.13-.07,0,0,0h0l-.12.08-.24.16-.2.17-.11.09,0,0,0,0-.18.18-.08.09-.09.09-.15.18-.15.19-.14.18-.13.19-.13.19-.25.37-.23.38-.43.75-.4.76,1.55.84L629,87l.34-.55.17-.27.17-.27.37-.51.18-.23.1-.12.09-.1.1-.11,0-.06.05,0,.19-.19.2-.15.18-.11,0,0h.06l.08,0h.13l-.15.08h0l.11.28.06.14.06.15.2.6.1.3,0,.15,0,.15.18.62.17.62.15.63.15.62Z" transform="translate(-21.2 -22.05)"/><path class="cls-7" d="M667,93.79l-.58,1.77-12.13-3.72-3-.94-.1,0-.11,0h-.13l-.15,0H643.6l0,0h0l.37-.7v.07l-.07.39-.6,3.13-.63,3.11L642,99.9l-.7,3.11-.76,3.1-.4,1.55-.43,1.55-1.6,5.46-.78-2.65-.39-1.33-.21-.73-.21-.79-.21-.79-.19-.79-.19-.79-.17-.79-.34-1.58-.31-1.58-.58-3.17L634,96.52l-.54-3.14-.28-1.56-.3-1.55-.33-1.54-.36-1.52-.21-.74-.11-.37,0-.19-.06-.18-.25-.72-.06-.18,0-.09,0-.09-.15-.34-.14-.34-.07-.17-.08-.18-.34-.72L630,81.45l-1.37-2.89L623.19,67l1-.52L629,75.51l2.36,4.54,1.18,2.27.29.58.29.62.14.31.07.16.06.15.24.63.12.31,0,.16.06.16.19.63.2.63.18.63.17.63.16.63.31,1.27.55,2.52.5,2.52,1,5,.5,2.49.27,1.24.13.62.07.31,0,.15,0,.08,0,0h0l.57-2.45.54-2.46,1-4.93,1-5,.06-.31,0-.08h0l.36-.68,0,0,.06-.05.12-.11.14-.1.14-.09.16-.09.16-.07.16-.06.16,0,.16,0,.14,0h1.5l2.56,0,2.55.05.64,0,.35,0,.39,0,.2,0,.22,0,.22,0,.2.07.6.21,4.78,1.66Z" transform="translate(-21.2 -22.05)"/><polygon class="cls-7" points="631.01 75.74 633.14 75.19 632.9 74.12 632.68 73.05 632.26 70.89 631.53 66.69 631.09 66.55 630.87 66.47 630.72 66.42 630.52 66.37 630.32 66.32 630.13 66.29 629.77 66.24 629.44 66.22 629.14 66.2 626.88 66.15 622.32 66.08 622.42 68.73 629.4 68.73 629.76 70.49 630.14 72.24 630.56 73.99 630.78 74.86 631.01 75.74"/><path class="cls-7" d="M673.46,91.08l-.2-1-1.38,0-1.49-.09-3-.17-5.26-.32-.22.76-.44,1.44-.91,2.86-.48,1.42-.51,1.4-.54,1.39-.29.68-.14.34-.15.33,1.54.67.12-.28.12-.29.21-.58.41-1.16.38-1.17.36-1.16.67-2.34.33-1.17.15-.58.08-.29,0-.15,0-.07v-.06l.87-.66h0Z" transform="translate(-21.2 -22.05)"/><path class="cls-7" d="M684.07,82.93l-1,.3-.6-2-.32-1-.35-1-.19-.48-.2-.47-.1-.24-.12-.22-.11-.22-.06-.11-.07-.1-.06-.1,0,0,0,0-.06-.09,0,0,0,0,0,0-.07-.07,0,0h0l0,0,0,0h-.38l-.09-.15,0-.07-.09-.14,0,0h0l0,0,0,0h.09l0,0,0,0,0,0-.06.08v0l0,0,0,0-.06.1,0,0,0,.06-.09.22-.09.24-.09.24-.08.25-.14.5-.27,1-.23,1-.45,2.1-.88-.18.35-1.69.38-1.7.21-.84.12-.43.13-.42.15-.43.09-.22,0-.1,0-.06,0,0,.11-.22,0,0,0,0,0,0,.08-.12,0,0,0-.07.12-.11,0,0h0l.1-.05.1,0,.05,0h0l1.83,1h0l.16.19.13.2.06.1.06.09.11.2.21.4.19.4.17.41.16.4.3.81.28.81.27.82Z" transform="translate(-21.2 -22.05)"/><path class="cls-7" d="M694.28,93.72l-1.48.61-.24-.61-.26-.61-.26-.6-.28-.58,0-.07h0l.1.14h0l0,0-.09-.1-.09-.09-.1-.1-.1-.08-.11-.09-.23-.16-.26-.16-.07,0,0,0h0l.41.1h-.2l-.68,0-2.7.09-2.06,0-.24-.69-.42-1.3-.39-1.31L684,86.75l-.73-2.62-.74-2.59,1-.31.64,2.08.63,2.08.64,2.07.33,1L686,89l.09.26,0,.12,0,.07v0L687,90h0l2.13-.14,1.06-.07.53,0H691l.4.09h0l.06,0,.12.07.25.14.26.16.26.19.12.1.12.11.12.11.11.11.11.12h0l.1.14v0l0,.06.26.49.24.5.23.5Z" transform="translate(-21.2 -22.05)"/><path class="cls-7" d="M716.51,100.71l.94-2.52-8.62-3.12-4.32-1.55-1-.39-.52-.2-.51-.22-.49-.2-.4-.18-.8-.35-.39,1.76-.06.22-.07.19,0,.08,0,.08,0,.08-.06.09-.07.12-.05.07,0,0c-.1.24-.09.23-.15.36h0v0l-.07.27-.12.56-.26,1.1-.14.55-.15.54-.07.26-.08.27-.17.52-.18.51-.09.25-.1.24-.11.24,0,.06,0,0-.06.1-.11.21v0h0l0,0-.06.08,0,.08,0,0,0,0,0,0,0,0h0v0h.18l0,0,0,0,0,0h0l0,0-.13-.14-.13-.18-.07-.09-.07-.11-.13-.21-.13-.23-.13-.24-.12-.24-.12-.25-.12-.25-.23-.51-.22-.52L695.27,96l-1.59.61.64,1.75.33.88.36.88.2.45.11.22.11.22.11.23.13.22.13.23.15.23.08.12,0,0,0,0,0,0,.2.24.1.11.14.13.14.11.07.06h0l0,0,.05,0,.2.1.2.1h.06l.07,0,.13,0,.14,0,.13,0h.13l.14,0,.13,0,.14,0h.12l.11,0,.19-.11.2-.12.13-.12.26-.25,0,0h0l0,0,0-.06.09-.12.18-.25.28-.47,0-.06,0-.06.06-.11.11-.23.11-.23.09-.23.19-.46.09-.23.08-.23.16-.46.29-.91.14-.45.13-.46.13-.46.12-.45.12-.46,0-.23,0-.11,0-.06h0l-.14.34h0l1-.48h0l1.72.69,1.7.66,3.42,1.33Z" transform="translate(-21.2 -22.05)"/><path class="cls-7" d="M705.1,100l2.33-1-.6-1.37-.63-1.36-1.26-2.59-1.27-.46-.34-.13L703,93l-.67-.27-2.75-1.16-.9,2,2.17,1,1.12.49.56.25.28.12.14,0,.08,0,0,0h0l.16.17h0l.49,1.06.46,1.07Z" transform="translate(-21.2 -22.05)"/><path class="cls-7" d="M726.68,99.49l.19-3.06-5.81-.32-2.9-.16-1.44-.08-1.41-.1-.91,2.74-.47,1.37-.48,1.36-.51,1.34-.27.65-.13.33-.14.32-.29.64-.3.61-.07.15-.08.14-.16.29,0,.07,0,0,0,0-.08.13-.17.25,2.23,1.62.39-.57.33-.57.08-.14.07-.14.14-.28.15-.28.13-.28L715,105l.13-.28.12-.27.24-.56.23-.56.44-1.11.42-1.12.41-1.12.2-.56.1-.28,0-.14,0-.07v0l.08,0h0Z" transform="translate(-21.2 -22.05)"/><path class="cls-7" d="M719,106.85l2.66-1.51-.14-.24-.06-.13-.07-.13-.26-.53-.26-.56-.24-.57-.23-.57-.22-.59-.44-1.19-.41-1.2-.4-1.22L718.2,96l-10.41-.7L707.58,98l4.18.35,2.09.18,1,.09.52,0,.26,0h.25l.06.06h0l.62,2,.33,1,.34,1,.37,1,.4,1,.22.5.11.25.11.26.25.5.06.13.07.13Z" transform="translate(-21.2 -22.05)"/><path class="cls-7" d="M733.57,97.29l-1.87-2.63-.06.06h-.07l.22,0h0l-.68.12-1.36.22-.68.11-.37.06-.22,0-.23,0-.25.06-.27.08-.26.11-.27.12-.72.42-.9,2.72-.45,1.33-.47,1.31,3,1.11.4-1.08.38-1.09.38-1.08.18-.55.09-.27.05-.13,0-.07v0h0l-.33.26h0l.14,0,.19,0,.53-.08,1.13-.18L731.9,98l.28,0,.14,0h0l.23-.06h0l.11,0,.23-.11.23-.11.11-.06.06,0,0,0Z" transform="translate(-21.2 -22.05)"/><path class="cls-7" d="M766.77,90.9l-.56-1.8-2.6.75L763,90h-.34l-.31,0-.33,0-.65-.1-2.64-.38-.33,0-.33-.06-.65-.12-1-.18-1.16,2.18-.64,1.23L754,93.69l-1.2,2.45-.59,1.22-.61,1.19,2.29,1.14.93-2,.89-2,.9-2,.46-1,.24-.48.11-.24.06-.12,0-.06,0,0v0l.39-.22h0l4.35.48.3,0h.36l.2,0,.21,0,.1,0,.11,0,.18-.06,1-.34Z" transform="translate(-21.2 -22.05)"/><path class="cls-7" d="M764.91,83.32l1.53.74-.05.11,0,.12-.1.24-.1.23-.09.24-.17.48-.09.24-.08.25-.16.49-.15.5-.15.5-.13.51-.27,1-.24,1-.4,1.8-.35.1-.17.06-.15,0-.11,0-.11,0-.22,0h-.56l-.3,0-.28,0-2.17-.24-1.09-.12-.55-.06-.27,0-.27,0-2.15-.33.39-2.26,1.69.32.84.15.85.12,1.68.24.85.13.42.06.21,0h.19v-.1h0l.22-.84.24-.83.25-.84.13-.41.14-.42.14-.41.15-.42.31-.82.34-.82.19-.41.09-.2.05-.1Z" transform="translate(-21.2 -22.05)"/><path class="cls-7" d="M782.07,90l.06.4-2.28.45-1.15.21-1.16.18-1.16.17-1.16.14-.58.07h-1l-.18,0-.05-.18-.1-.31-.37-1.1-.39-1.1-.42-1.09-.43-1.07-.23-.53-.24-.52-.24-.52-.26-.5-.13-.25-.15-.25-.14-.24-.07-.12-.07-.12,1.18-.7.13.22.11.21.22.44.2.44.1.22.09.22.19.45.17.44.18.45.16.45L773,87l.15.45.28.9.28.91.13.46.07.22,0,.12v.1l.69.59h0l1.84-.12,1.84-.16,1.84-.21Z" transform="translate(-21.2 -22.05)"/><path class="cls-8" d="M286.08,490.26C278.28,486,269.79,483.6,262,486c-21.56,4.74-41.81,1.19-63.67,3a29.08,29.08,0,0,0-6.45,1.87c-20.38,8.33-40.55,16.95-61,.82h-7c-4.31,0-7.84-6.4-7.84-14.22,0,0,.66-5.1,2-13.93,5.35-29.71-5.1-57-5.75-86.57-.65-10.66,0-23.69,6-30.36,1.42-2.58,3.38-4.18,5.54-4.18h15c27.69,13.22,53.82,6.11,81.51-4.49,4.56-.6,9-1.18,13.17-1.9,12.47-2.16,25-1.48,37.6,5.81a70,70,0,0,0,8.19.58h7c2.15,0,4.11,1.6,5.53,4.18a17.24,17.24,0,0,1,1.88,10.05A317.51,317.51,0,0,0,292,388.84c.65,29.61,6.53,59.23,2.91,88.62a28,28,0,0,1-3,10.07C290.45,490.11,288.46,491.5,286.08,490.26Z" transform="translate(-21.2 -22.05)"/><path class="cls-7" d="M133.68,374.52a70.05,70.05,0,0,0,7.79.3l-.07-1.53c-2.56.22-5.13.46-7.67.48Z" transform="translate(-21.2 -22.05)"/><path class="cls-7" d="M131,373.82l.2-.34a4.38,4.38,0,0,0,1.43.26l-.08.6A5.16,5.16,0,0,1,131,373.82Z" transform="translate(-21.2 -22.05)"/><polygon class="cls-7" points="121.43 352.77 121.34 351.15 122.88 351 122.98 352.75 121.43 352.77"/><path class="cls-7" d="M190.29,373.82a2,2,0,0,0,1.46-.46,6.2,6.2,0,0,0,1-1.22c.28-.45.54-.93.79-1.38s.46-.85.71-1.22l-.76-.51c-.29.44-.52.87-.75,1.3s-.41.77-.65,1.15a5,5,0,0,1-.8,1,1.5,1.5,0,0,1-1.21.36Z" transform="translate(-21.2 -22.05)"/><path class="cls-7" d="M188.14,373.82v-1c.38,0,.8,0,1.14,0l0,.95Z" transform="translate(-21.2 -22.05)"/><path class="cls-7" d="M194.73,369l-.6-.72.34-.22a2.23,2.23,0,0,1,.44-.13,1.84,1.84,0,0,1,.47.06l.19.08.09.05.05,0h0l-.26-.07h0V369l-.28-.09h-.05l-.07,0s-.07,0-.11,0l-.11,0Z" transform="translate(-21.2 -22.05)"/><path class="cls-7" d="M240.51,376.91l.54,0a4.6,4.6,0,0,0,.8-.15,5.16,5.16,0,0,0,1.18-.49,10.94,10.94,0,0,0,1.72-1.3c.54-.48,1.06-1,1.61-1.44a4.54,4.54,0,0,1,1.85-1.07,1.93,1.93,0,0,1,1.89.78,5.37,5.37,0,0,1,.62.88l.47,1a9.39,9.39,0,0,0,2.5,3.46l1.49-2.84a15.63,15.63,0,0,1-3.18-4l-.61-1a6.13,6.13,0,0,0-.78-.92,2.58,2.58,0,0,0-2.29-.83,5.66,5.66,0,0,0-2.24,1.1c-.67.49-1.31,1-2,1.56a19.92,19.92,0,0,1-2.13,1.53l-.57.32a1.28,1.28,0,0,1-.41.22,1.47,1.47,0,0,1-.37.08l-.66,0Z" transform="translate(-21.2 -22.05)"/><path class="cls-7" d="M235.47,379.5l-1.72-2.69c.49-.47,1-1,1.42-1.48l.8-.7.38-.35.2-.18c.07-.05.17,0,.26-.05l1.11,3.09c-.07,0-.16,0-.21,0l-.15.17-.3.34c-.19.23-.4.44-.61.66A11.64,11.64,0,0,1,235.47,379.5Z" transform="translate(-21.2 -22.05)"/><path class="cls-7" d="M257.62,378.77l-1.09-2.59a13.71,13.71,0,0,0,2.86-1.9l1.67,2A15,15,0,0,1,257.62,378.77Z" transform="translate(-21.2 -22.05)"/><polygon class="cls-7" points="263.56 351.41 264.49 351.29 264.48 350.94 263.52 350.93 263.56 351.41"/><polygon class="cls-7" points="263.22 351.45 263.19 350.94 263.38 350.94 263.41 351.43 263.22 351.45"/><path class="cls-7" d="M285.84,373.34V373l.21,0,0,.31Z" transform="translate(-21.2 -22.05)"/><path class="cls-7" d="M165.65,364l2.07,1-2.07,4.4-2.13,4.37-.56,1.1-.58,1.09-.6,1.09-.64,1.08-.33.53-.35.53-.36.53-.37.53-1.36,1.77-.65-.86-.33-.43-.18-.24-.2-.27-.19-.28-.18-.28-.18-.28-.16-.29-.33-.57-.3-.57-.51-1-.47-1-.48-1-.26-.49-.13-.24-.13-.24-.15-.24-.07-.12-.07-.11-.16-.23-.07-.12-.09-.1-.17-.22-.08-.11-.1-.1-.19-.2,0-.05-.06,0-.1-.1-.21-.18h-.82l-.14,0-.13,0-.13,0-.13,0-.13.05-.13.05-.25.11-.25.12-.24.13-.24.14-.23.15-.45.31-.45.33-.87.68-.21.17h-.06l-.07,0-.14,0-.53.11.38-2.27.56-.14.27-.07.14,0h.06l.05,0,.84-.54.83-.52.21-.14.11-.06.11-.06.42-.24.22-.11.22-.1.23-.1.22-.08.23-.08.24-.07.24-.06.12,0,.13,0h.5l.5,0h.19l0,0,.21.17.2.17.18.19.19.19.17.2.17.2.09.1.08.1.3.44.29.44.08.11.07.11.13.23.14.22.13.23.25.47.25.47,1,1.91.47.9.23.41.11.2.06.1,0,0,0,0-.06,0h0l.49-.8.47-.81.91-1.67,1.77-3.42,1.8-3.44Z" transform="translate(-21.2 -22.05)"/><path class="cls-7" d="M167.5,374.24l0-2.56-2.89-.06-1.45,0h-.61l-.15,0-.16,0-.16,0-.16,0-.12,0-.15.06-.3.12h0v0l0,0,0,.08-.08.14-.15.3-.33.64-.66,1.27-.68,1.24-.71,1.22,2.3,1.4.62-1,.58-1,.56-1.05.27-.52.14-.26.06-.14,0-.06v0h0l-.3.1h0Z" transform="translate(-21.2 -22.05)"/><path class="cls-7" d="M175.46,378.58l-.54-1.81-.15,0-.15,0-.14,0h-.2l-.07,0-.13-.06-.07,0-.07,0-.14-.1-.14-.1-.13-.14-.14-.14-.07-.07,0,0h0v0l-.27-.35-.13-.17,0,0,0-.05-.06-.1-.25-.4-.12-.2-.11-.21-.44-.86-.77-1.68h-.21l-.2,0-.21,0-.27,0-1.16-.08-2.09-.05-2.08-.05h-2l-.2,0,.34,2.68h1.5l1.65,0,1.66,0,.83,0h.78l.19.09h0l.2.38,0,.09.05.1.12.19.45.74.53.74.13.18.15.18.32.35.15.18,0,0,0,0,0,0,.1.08.38.33.1.08,0,0,.05,0,.24.14.24.13.12.07.05,0,0,0h0l.28.09.28.09.14,0h.89l.14,0Z" transform="translate(-21.2 -22.05)"/><path class="cls-7" d="M186.85,373.8l0-1-7.34-.33-.14.19-.06.09-.13.16-.61.75-.62.73-.16.18-.16.17-.33.34-.16.17,0,0,0,0-.09.07-.33.31-.17.16-.18.13-.34.27-.05,0h0l0,0-.09.05-.17.1-.17.1,0,0h0l-.08,0-.33.13h-.15l-.15,0,.2,1.93.53-.12.14,0h0l0,0,0,0,.23-.11.23-.11.11-.05.05,0h0l0,0,.39-.26.18-.13.1-.07.08-.07.32-.3.17-.14.08-.07,0,0,0,0,.29-.31.28-.3.07-.08.07-.08.13-.16.51-.63.48-.65.24-.32.11-.17.06-.08,0,0v0h0l.66-.38h0Z" transform="translate(-21.2 -22.05)"/><path class="cls-7" d="M206.53,373.08l-.91,1.24,0,0h0l.14.08h0l-.08,0-.14-.06-.16-.06-.17-.05-.37-.1h-.08l.17,0h-1.94l-2.85,0-.29-.32-.28-.32-.26-.33-.5-.67-.49-.67-.47-.65-.49-.63-.25-.3-.13-.15-.13-.13-.13-.14-.14-.12-.13-.12-.14-.11.56-.8.15.11,0,0,0,0,.07.05.14.12.07.06.06.06.25.24.24.26.11.12.11.13.22.26.42.51.82,1,.4.5.21.25.1.12,0,.06,0,0v0h0l.63.24h0l2.58-.12.64,0h.64l.17,0,.33.06.35.08.18.05.18.05.19.07.09,0h0l.14.08h0Z" transform="translate(-21.2 -22.05)"/><path class="cls-7" d="M221.63,380.44l.56-2.62h-.12l-.17-.08-.09,0h0l-.05,0-.21-.13-.1-.07,0,0,0,0,0-.05-.23-.17-.11-.09-.11-.1-.24-.2-1-.86-.51-.44-.51-.44-.52-.44-.54-.42-.27-.21-.13-.11-.07-.05,0,0v0h0l-.58-.25-.64-.07-1.28-.17-.3,0-.25,0-.48-.08-.24.43-.13.22,0,.08v0h0l0,0-.05,0-.08.05,0,0h0l-.37.38h0l0,0-.31.51-.08.13,0,.06,0,0,0,0-.16.22-.17.22,0,.06,0,0-.08.08-.17.18,0,0,0,0-.08.06-.07.05,0,0,0,0h0l-.06,0-.07,0,0,0h-.38l-.19-.09-.05,0h-.06l-.11-.07-.22-.14-.22-.18-.12-.09-.06-.05-.06-.05-.47-.41-.48-.45-.49-.46-.26-.23-.26-.22-1.09,1.2.18.17.18.19.35.37.73.78.4.4.1.1.11.1.22.19.11.1.13.1.26.19.13.09.16.09.31.16.08,0,.1,0,.19.06.19.05.1,0h.84l.11,0,.4-.11.1,0,0,0,0,0,.16-.09.33-.18.08-.05,0,0h0l.13-.11.25-.22.13-.11.06-.05,0,0,0,0,.4-.46.2-.23.17-.24.17-.24.08-.12,0-.06,0,0H215l1,.19h.12l-.55-.23h0l.09.08.19.16.39.33.19.16.18.17.37.35.75.7.75.73.39.37.2.19.1.1.11.09.45.38,0,.05.07.05.13.09.27.19.13.09,0,0,0,0,.09,0,.33.16.16.08.09,0h.1Z" transform="translate(-21.2 -22.05)"/><path class="cls-7" d="M233.37,377.26l.08-3-7-.08-1.12,1.29-.28.32-.29.3-.29.3-.14.15,0,0,0,0-.07.07-.58.52-.28.21-.15.11-.07,0v0H223l-.25.14-.07,0h-.05l-.1,0-.09,0h-.23l-.38,2.66.07,0h1l.13,0,.53-.14.13,0h0l.06,0,.21-.1.43-.22.1-.05.09-.06.18-.12.35-.25.17-.12,0,0,0,0,.07-.06.6-.52.15-.13.14-.13.27-.26.53-.54.25-.27.13-.13.06-.07,0,0,0,0h0l.09,0h0Z" transform="translate(-21.2 -22.05)"/><path class="cls-7" d="M232.85,380.66l-.39-3h-.24l-.08,0-.1,0h0l-.05,0-.23-.09-.26-.17-.14-.07-.13-.12-.28-.22-.07-.05-.07-.06-.14-.14-.28-.26-.07-.07-.07-.07-.13-.15-.28-.3-.14-.14-.13-.16-.54-.64-.26-.33-.27-.33-7.07-.11-.08,2.71,2.84.13,1.42.06.72,0,.35,0H227l.08.06h0l.23.29.12.14.12.14.5.57.06.08.07.07.14.14.28.27.13.14.07.07,0,0,0,0,.32.27.32.27,0,0,0,0,.09.07.19.12.38.25.23.11.22.1.23.1.12.05.13,0,.53.12.14,0h1Z" transform="translate(-21.2 -22.05)"/><path class="cls-7" d="M273.76,369.49l-.44,1.63-.34-.05h-.57l-.08,0-.16,0H272l-.3.14-.08,0-.07.05-.15.1-.15.09,0,0h0l-.07.07-.28.25-.07.06h0v0l0,0-.13.15-.26.29-.48.66-.79,1.3h-.16l-.17,0-.16,0h-.25l-.55,0h-.51l-1.85,0-1.86,0h-.81l.82-.23-.09.07-.69.55-1.56-2,.63-.45.15-.11.08-.05,0,0,.8-.23H263l.37,0,1.46.12,1.46.11.73.06.36,0,.18,0h.15l.25-.12h0l.11-.16.06-.08.06-.08.26-.31.26-.31.06-.08,0,0,0,0,.15-.15.29-.28.15-.15,0,0h0l0,0,.09-.06.34-.26.17-.13,0,0h0l.05,0,.1-.05.38-.22.1,0,.05,0h0l.22-.08.43-.15.05,0h.06l.12,0,.23,0,.23,0h.92l.22,0,.22.05.11,0,.06,0h.05Z" transform="translate(-21.2 -22.05)"/><path class="cls-7" d="M283.6,373l0,.61-1.67.19-1.68.17-1.69.15-.43,0-.45,0h-.47v0l0,0-.05-.07,0-.07-.05-.06-.07-.07-.55-.61-.57-.57-.3-.26-.15-.13-.08-.06-.07-.06-.31-.23-.16-.11-.16-.1-.32-.19,0,0,0,0-.08,0-.17-.08-.16-.07,0,0h0l-.08,0-.32-.09h-.16l-.16,0-.16,0h-.15l0-1.75h.32l.1,0,.42.09.1,0h.05l.05,0,.19.07.38.15.05,0h0l.09.05.17.09.34.19,0,0,0,0,.08.05.15.11.31.23,0,0,0,0,.07.07.14.12.28.24.07.06.06.07.13.13.25.26.12.13.07.07.05.06.23.28.23.27.06.07.05.07.05.07,0,0v0h0l.58.36h0l2.68,0Z" transform="translate(-21.2 -22.05)"/><path class="cls-7" d="M131.75,418.47c.79-.11,1.46-.35,2.15-.5a10.34,10.34,0,0,1,2-.25l-.08-1.11a10.18,10.18,0,0,0-2.21.53c-.7.24-1.38.57-2,.76Z" transform="translate(-21.2 -22.05)"/><path class="cls-7" d="M130.56,417.36l.35,0c0,.26.14.52.29.57l-.26.41A1.08,1.08,0,0,1,130.56,417.36Z" transform="translate(-21.2 -22.05)"/><path class="cls-7" d="M136.55,417.75l0-1.19c.3,0,.66,0,.91,0l-.11,1.27C137.05,417.79,136.83,417.79,136.55,417.75Z" transform="translate(-21.2 -22.05)"/><path class="cls-7" d="M159.44,419.77a14.84,14.84,0,0,0,2.66-1.45c.42-.28.82-.58,1.21-.88s.66-.55,1-.84q.84-.78,1.62-1.62a9.44,9.44,0,0,1,1.63-1.59,2,2,0,0,1,2.16,0,6.61,6.61,0,0,1,1.67,1.54l0-2.77a8.58,8.58,0,0,0-.95-.86,4.62,4.62,0,0,0-1.08-.72,2.89,2.89,0,0,0-1.3-.3,3,3,0,0,0-1.3.38,10.42,10.42,0,0,0-2,1.78c-.65.64-1.32,1.29-2,1.93-.37.32-.78.7-1.13,1s-.67.53-1,.77a12.59,12.59,0,0,1-2.19,1.25Z" transform="translate(-21.2 -22.05)"/><path class="cls-7" d="M153.55,420.89v-2.47a12,12,0,0,0,2.83-.34l.57,2.5A14.07,14.07,0,0,1,153.55,420.89Z" transform="translate(-21.2 -22.05)"/><path class="cls-7" d="M172.68,416.58l.39-2.62c.75.83,1.54,1.72,2.41,2.59l-.9,2.12A14.52,14.52,0,0,1,172.68,416.58Z" transform="translate(-21.2 -22.05)"/><path class="cls-7" d="M259.44,418.06a42.31,42.31,0,0,1,7.73-.36c2.6.07,5.22.39,7.91.5l.09-1.11c-2.57-.38-5.19-.93-7.86-1.23a40.21,40.21,0,0,0-8.14-.17Z" transform="translate(-21.2 -22.05)"/><path class="cls-7" d="M253.68,417.82l.2-2.68c1.08.11,2.16.25,3.23.43l-.35,2.5C255.74,418,254.71,417.88,253.68,417.82Z" transform="translate(-21.2 -22.05)"/><path class="cls-7" d="M277.53,418l-.08-.86c1.05,0,2.1-.11,3.16-.19l.06.46C279.64,417.59,278.59,417.79,277.53,418Z" transform="translate(-21.2 -22.05)"/><path class="cls-7" d="M151.86,421l-.67-2.29-.08,0,0,0h0l-.15,0h-.42l-.14,0-.15,0h0l0,0-.08,0-.08,0h0l0,0-.17-.07-.16-.1-.09-.05,0,0,0,0-.18-.12,0,0,0,0-.09-.07-.17-.13-.17-.14-.17-.15-.17-.15-.17-.16-.17-.16-.34-.33-.33-.35-.65-.72-.15-.17-.11-.12-.21-.26H146l-.16,0-.17,0-.23,0-1,.16-2,.37-2,.38-1,.16-.48.06-.48,0,0,1.4h.84l.84-.05.82-.07.82-.09,1.6-.18.8-.09.39,0,.2,0h.19l.42.22h0l.53.64.56.63.3.31.15.15.16.15.16.15.17.15.17.15.18.14.19.14.1.07.1.07.2.13,0,0,.05,0,.12.06.22.12.06,0,.06,0,.12.05.24.1.26.08.14,0,.13,0,.28.05h.57l.28,0h.14l.14,0,.13,0,.07,0h.07Z" transform="translate(-21.2 -22.05)"/><path class="cls-7" d="M191.6,418.14l.31-.87-.16,0h-.08l-.08,0-.16,0h-1.77l-.3,0L187,417l-2.4-.2-.3,0-.31,0-.33,0h-.37l-.19,0-.13,0-.11,0-.23.05-.05.22,0,.12-.07.23-.16.56-.2.54,0,.07,0,.06-.06.12-.12.25,0,.06,0,0v0l-.07.11-.14.22,0,0,0,0,0,.05-.08.09-.07.09,0,0h0l0,0-.17.13-.08,0-.08,0h-.08l-.08,0h-.27l-.1,0h-.15l0,0-.11,0H180l0,0-.22-.1h-.06l-.06,0-.11-.06-.12-.06-.11-.07-.24-.15-.23-.17-.23-.16-.23-.18-.47-.38-.23-.19-.12-.09-.06-.05-.38-.17h0l-.39,1.76.08,0h0l-.36-.16h0l0,0,.1.07.21.14.41.28.43.27.22.14.22.13.23.13.24.13.12.06.13.06.25.11.07,0,.07,0,.13,0,.28.1.3.06.16,0,.16,0,.33,0,.34,0H181l.17-.06.16-.05.09,0h0l0,0,.3-.18.07-.05h0l0,0,.12-.11.23-.22.19-.24.09-.12,0-.06,0,0,0,0,.14-.25.13-.25.1-.25.1-.25.05-.12,0-.13.08-.25,0-.13,0-.06v-.05l.6-.57h0Z" transform="translate(-21.2 -22.05)"/><path class="cls-7" d="M215.31,433.25,218,432l-5.48-11.4-1.4-2.84-.18-.36-.13-.24-.15-.25,0,0,0,0-.05-.05-.08-.11-.18-.22-.37-.36-.37-.3-.37-.26-.66-.44-.29-.2-.25-.19-.19-.18-.08-.09,0,0h0v0l-.06-.08,0-.05h0v0l0-.1,0,0V414l0-.11v-.06h0v-.29l0-.3,0-.15,0-.12.13-.48.24-1-1,.25-.49.12-.12,0-.2.07-.43.14-.2.08-.2.09-.41.19-.1,0-.05,0,0,0-.19.11-.38.21-.1.05-.09.06-.18.12-.35.24-.09.06-.09.06-.17.13-.34.27-.08.06-.08.07-.16.14-.32.28-.15.14-.15.14-.3.29-.15.15-.14.15-.28.31-.14.15-.14.16-.27.31-.26.32-.26.32-.25.32-.24.33-.24.33-.23.34-.46.67-.44.68-.42.69-.41.7-.4.7-.1.18v0h0l0,0h0l0,0,0,.05,0,0h0l0,0,0,0h-.11l-.05,0h0l-.05,0,0,0h0v0l-.06-.05-.06-.06-.06-.06-.12-.14-.12-.14-.23-.3-.22-.31-.46-.66-.47-.66-.25-.32-.28-.34-.29-.33-.16-.15-.07-.08-.09-.08-.16-.14-.17-.14-.08-.07-.09-.06-.19-.12-.19-.11-.09-.05-.1,0-.2-.08-.21-.07h-.11l-.11,0-.11,0h-1l-.41,0,0,.91.6,0,.29,0h.28l.14,0h.14l.14,0h0l0,0,.07,0,.13.05.13.07.12.07.12.08.12.09.11.09.05,0,.06.05.1.1.11.1.1.1.19.21.18.22.19.23.36.51.71,1,.38.54.2.27.11.14.12.13.13.14.07.06.08.07.07.06,0,0,.05,0,.1.06.05,0,0,0h0l.12.05.06,0h.07l.14,0h.31l.07,0h.07l.13-.06.07,0h0l0,0,.2-.15.15-.16,0,0,0,0h0l0-.07,0-.07.09-.13.33-.54.34-.53.35-.52.36-.52.36-.51.38-.5.39-.49.4-.48.41-.46.21-.23.21-.22.22-.23.1-.11.11-.1.45-.42.11-.11.12-.09.23-.2.23-.2.24-.18.24-.18.12-.09.13-.08.5-.33.25-.15.13-.07.07,0,0,0,1.5,1.33h0l.06.08.07.08.14.15.07.07.07.07.15.13.14.13.14.11.27.22.5.38.23.17.1.09.1.09.09.08.05,0,0,0,0,0,.14.16.12.16,0,0h0v0l0,.08,0,.07.06.14.13.29.24.58,2,4.63Z" transform="translate(-21.2 -22.05)"/><path class="cls-7" d="M215.88,420.82,214.3,423l-.41-.32-.38-.33-.37-.33-.36-.34-.69-.67-.67-.67-.66-.67-.32-.32-.17-.17-.08-.08h0l.59.3h0l-.06,0-.91-.21L209,419h0v0l0-.05,0-.08-.07-.17-.08-.16,0-.05,0,0,0-.06-.05-.12-.08-.11,0-.06v0h0l0,0-.11-.12,0,0,0,0-.07-.07-.14-.12-.33-.27-.37-.28-.4-.31-.11-.09-.1-.09-.22-.19-.05-.05-.05-.06-.11-.11-.11-.12,0,0-.05-.07-.19-.27-.05-.07,0,0,0,0-.08-.15-.08-.16,0-.08,0,0v0l-.1-.33-.05-.17,0-.17,0-.33v-.33l0-.31v-.15l0-.14.06-.29,0-.14,0-.13.06-.22,1.83.46,0,.19,0,.09v.08l0,.29,0,.07v.32h0v.08l0,.11v0h0l0,.05,0,.09v0h0l0,0,.06.09v0h0l0,0,.08.09,0,0h0l.05.05.09.09,0,0,0,0,.06,0,.11.09.07.05.07,0,.59.4.34.23.17.12.09.06.09.07.18.15.08.07,0,0,0,0,.18.17.09.09,0,0,0,0h0l.53.36h0l.37.07h.08l.57.29h0l.07.07.15.12.56.51,1.1,1,1.09,1,.54.44.13.11.07.05.07.05Z" transform="translate(-21.2 -22.05)"/><path class="cls-7" d="M230.48,420.43l-.1-3.15-4.9.2-2.46.11H221.8l-1.2,0-.25.56-.24.54-.24.51-.12.26-.06.13,0,0v0l0,.05-.27.46-.13.23,0,0v0h0l0,0-.08.1-.29.38,0,0h0l0,0-.07.07-.15.13-.07.07,0,0h0l-.07,0-.07,0-.13.09H218l-.06,0-.06,0h-.28l-.18-.05-.18,0h0l-.06,0-.1,0-.2-.09,0,0h0l0,0-.11-.07-.44-.26-.44-.32-1.63,2.1.43.34.11.08,0,0,0,0,.06,0,.25.16.25.16.12.08.06,0,.08,0,.57.28.14.06,0,0h0l.09,0,.33.09.34.09.09,0h.09l.19,0h.68l.09,0,.39-.07.38-.09.1,0h0l0,0,.17-.08.34-.17.32-.17.27-.22.51-.43,0,0h0v0l.05-.06.1-.11.2-.24.39-.47.31-.48.3-.48.08-.12.06-.12.06-.13,0-.06,0,0h0l.14-.08h0v0Z" transform="translate(-21.2 -22.05)"/><path class="cls-7" d="M237.23,412.5l1.88,2.61-.12.08,0,0,0,0-.06.06-.26.24-.06.06,0,0,0,0-.13.14-.26.29-.06.07-.07.08-.13.16-.26.32-.13.16-.13.18-.26.34-.51.71-.51.72L235,420.35l-1.91.09-1.83,0-3.67.06-.05-3.1,2.89-.12,1.45-.05.72,0h.7l-.1.05h0l.84-1.19.44-.6.45-.61.49-.6.12-.15.07-.07.07-.08.27-.3.28-.3.32-.29.33-.3,0,0,0,0,.1-.07Z" transform="translate(-21.2 -22.05)"/><polygon class="cls-7" points="230.55 392.94 230.45 395.73 229.49 395.72 228.52 395.74 227.56 395.77 226.59 395.82 225.63 395.88 224.67 395.97 222.72 396.18 222.72 396.17 222.72 396.17 222.72 396.16 222.71 396.16 222.7 396.15 222.68 396.12 222.64 396.07 222.56 395.98 222.4 395.78 222.23 395.58 222.07 395.4 221.44 394.7 221.36 394.61 221.28 394.53 221.12 394.37 220.8 394.05 220.64 393.89 220.47 393.75 220.15 393.48 219.99 393.34 219.83 393.23 219.52 393.02 219.48 392.99 219.46 392.98 219.45 392.97 219.44 392.97 219.37 392.94 219.23 392.87 219.09 392.8 219.06 392.79 219.05 392.78 219.05 392.78 219.04 392.78 219.04 392.78 219.03 392.78 218.97 392.77 218.86 392.74 218.81 392.73 218.78 392.71 218.77 392.71 218.76 392.71 218.72 392.72 218.68 392.72 218.64 392.72 218.59 392.71 218.59 392.71 218.58 392.71 218.58 392.71 218.58 392.71 218.57 392.71 218.57 392.71 218.55 392.72 218.51 392.74 218.47 392.75 218.43 392.75 218.38 392.76 218.38 392.76 218.38 392.76 218.38 392.76 218.37 392.76 218.36 392.77 218.33 392.79 218.23 392.84 216.83 389.94 217.1 389.82 217.24 389.76 217.31 389.73 217.39 389.71 217.71 389.63 218.03 389.56 218.19 389.53 218.23 389.52 218.25 389.52 218.27 389.52 218.35 389.52 218.69 389.52 219.02 389.53 219.19 389.54 219.23 389.55 219.25 389.55 219.26 389.55 219.34 389.57 219.94 389.73 220.08 389.77 220.16 389.8 220.19 389.81 220.22 389.82 220.47 389.94 220.97 390.19 221.08 390.25 221.19 390.32 221.39 390.47 221.8 390.75 221.9 390.83 221.94 390.86 221.99 390.9 222.16 391.05 222.5 391.36 222.68 391.51 222.76 391.59 222.84 391.67 223.44 392.3 223.59 392.46 223.67 392.54 223.74 392.62 223.87 392.78 223.94 392.86 223.98 392.9 223.99 392.92 224 392.93 224.04 392.97 224.04 392.98 224.04 392.98 224.04 392.99 224.85 392.94 225.67 392.9 226.48 392.88 227.3 392.86 228.11 392.86 228.93 392.88 229.74 392.9 230.55 392.94"/><path class="cls-7" d="M133.3,455.82a12.71,12.71,0,0,0,3.53,1.9l-.09,0a10.35,10.35,0,0,0,4.31.74c.7,0,1.4-.05,2.08-.11a15.7,15.7,0,0,0,2.05-.24l-.32-2.22a4.37,4.37,0,0,1-.94.42l-1,.15c-.66.1-1.31.19-2,.24a8.87,8.87,0,0,1-3.69-.28l-.09,0h0a11.86,11.86,0,0,1-3.35-1.39Z" transform="translate(-21.2 -22.05)"/><path class="cls-7" d="M131,456.07l-.44,0a3.44,3.44,0,0,1,.19-1.28,1,1,0,0,1,.57-.61,1.34,1.34,0,0,1,.82,0l-.25.73c-.33-.11-.41-.15-.59.13A3.16,3.16,0,0,0,131,456.07Z" transform="translate(-21.2 -22.05)"/><path class="cls-7" d="M146.29,457l-.1-2.37a5.88,5.88,0,0,1,.95-.78l.55-.32a3,3,0,0,1,.59-.22l-.27,2.43A4.21,4.21,0,0,0,146.29,457Z" transform="translate(-21.2 -22.05)"/><path class="cls-7" d="M179.79,459.15c.31.06.61.08.91.11l.19-1.5c-.27-.05-.53-.09-.78-.16Z" transform="translate(-21.2 -22.05)"/><polygon class="cls-7" points="158.27 437.05 158.63 435.49 158.79 435.52 158.45 437.08 158.27 437.05"/><polygon class="cls-7" points="159.63 437.23 159.8 435.74 159.96 435.76 159.82 437.25 159.63 437.23"/><path class="cls-7" d="M205.33,456.09a8.47,8.47,0,0,1,2.22-1.87,4.4,4.4,0,0,1,2.59-.5l.14-1.73a6,6,0,0,0-3.49.93,9.89,9.89,0,0,0-2.47,2.35Z" transform="translate(-21.2 -22.05)"/><path class="cls-7" d="M203.62,457.74l-.65-1.1.09,0a1.78,1.78,0,0,0,.46-.22l.3-.43.85,1-.39.48a3.13,3.13,0,0,1-.54.3Z" transform="translate(-21.2 -22.05)"/><path class="cls-7" d="M210.93,453.9l.42-1.76a7.62,7.62,0,0,1,1.36.4l-.74,1.75A7.33,7.33,0,0,0,210.93,453.9Z" transform="translate(-21.2 -22.05)"/><path class="cls-7" d="M245.65,461.54c.18.19.37.37.56.54l1.81-2.55c-.24-.21-.46-.44-.69-.67Z" transform="translate(-21.2 -22.05)"/><polygon class="cls-7" points="224.24 439.31 225.88 436.58 226.01 436.72 224.35 439.42 224.24 439.31"/><polygon class="cls-7" points="225.08 440.13 226.91 437.6 227.05 437.73 225.2 440.23 225.08 440.13"/><path class="cls-7" d="M275.26,458.6a8.05,8.05,0,0,0,1.52-1.71l-.32-.28a7.81,7.81,0,0,1-1.59,1.39Z" transform="translate(-21.2 -22.05)"/><path class="cls-7" d="M274.49,459l-.23-.77a2.35,2.35,0,0,0,.35-.11l.34.67A2.72,2.72,0,0,1,274.49,459Z" transform="translate(-21.2 -22.05)"/><path class="cls-7" d="M277,456.7l-.2-.34a.37.37,0,0,1,.26,0,.29.29,0,0,1,.17.18.73.73,0,0,1,0,.27l-.32,0a.91.91,0,0,0,0-.16s0,0,0,0a.05.05,0,0,0,0,0Z" transform="translate(-21.2 -22.05)"/><path class="cls-7" d="M176.29,466.51l1-1.52-3.37-2.5L170.56,460l-3.42-2.43-.72-.51,0-.06-.11-.13-.25-.37-.12-.19-.13-.19-.24-.4-.5-.8-.74.59-.37.29-.1.08-.09.06-.18.13-.18.13-.18.12-.18.11-.1.06-.09,0-.38.19-.39.15-.39.12-.41.09H161l-.21,0h-1.08l-.22,0-.46-.07-.46-.08-.47-.11-.48-.12-1-.28-.51-.15-.25-.08-.13,0-.07,0h0l.19.07h0l0,0-.89-.44-1.88-1.05-1-.57-.52-.26-.51-.26-.76,2.37.17.08.08,0,.09.05.33.18.65.39,1.36.83.76.44.78.43.2.1,0,0,.21.08h0l.1,0,.4.13.82.26.85.26.43.11.45.11.46.1.47.07.23,0,.25,0,.24,0h1.24l.51-.05.12,0h.06l.07,0,.25,0,.25-.05.06,0h.06l.13,0,.49-.14.48-.19.11,0,.06,0,.06,0,.11-.05.06,0,0,0,1.14.28h0l2.8,1.83,2.82,1.8Z" transform="translate(-21.2 -22.05)"/><path class="cls-7" d="M178.24,456.91l-.56,1.67-.11,0h0l-.05,0-.2-.1-.4-.2-.05,0-.06,0-.1,0-.22-.06-.22,0-.22,0-.22,0h-.45l-.23,0h-.21l-.2-.11-.39-.21-.79-.44-.79-.42-.2-.1-.21-.1-.2-.09-.1-.05-.1,0-.42-.17-.43-.12-.06,0H171l-.11,0-.22,0-.12,0h-.56l-.22,0-.22,0-.21.08-.21.08-.05,0-.05,0-.1.06-.19.11-.09.06,0,0h0l0,0-.27.24-.07.06-.07.08-.13.15-.13.15-.07.08,0,0v0l0,0-.26.35-.12.18,0,0,0,.05-.06.1-.24.39-.9,1.54-.74-.51-.37-.25-.09-.06-.12-.09-.11-.08-.17-.16-.13-.14-.12-.13-.11-.13-.09-.13-.08-.11-.33-.48-.16-.23-.13-.21-.27-.43-2.12-3.44-4.17-6.9,2.12-1.32,3.48,5.44,1.72,2.74.86,1.37.42.69.21.34.11.17.05.09,0,0v0l-.3-.16h0l.14-.18.07-.09,0-.05,0,0,.33-.34.16-.17.08-.09,0,0,.05,0,.39-.32.2-.15.05,0,0,0,.09-.05.38-.22.05,0h0l.1,0,.21-.08.2-.07h.11l.1,0,.21-.05.11,0h.1l.43,0h.21l.21,0H170l.1,0,.42.1.4.11.2.06.1,0,.1,0,.39.16.78.32.78.37.79.36.4.2.2.1.1.05.05,0h0v.33h0l.22,0H176l.22,0h.11l.11,0,.22,0,.1,0h.06l.05,0H177l.1,0,.11,0,.1,0,.19.1.4.19.2.1Z" transform="translate(-21.2 -22.05)"/><path class="cls-7" d="M201.43,457l.33,1.15h-.61l-.2,0-.19,0h-.2l-.38-.15-.19-.07-.09,0h0l0,0,0,0-.36-.19-.17-.1-.05,0,0,0-.09-.06-.33-.23-.17-.11-.16-.13-.32-.25-.64-.52-.63-.51-.29-.19-.07-.05,0,0h0l-.14-.06-.14-.07-.07,0,0,0h0l-.27-.05-.07,0h-.06l-.13,0h-.19l-.07,0-.25.12,0,0h0l0,0-.06.05-.12.1-.24.21,0,0,0,0,0,.07-.11.13-.21.27-.11.13v0l0,0,0,0,0,.08-.36.61-.15.25-.06.1-.11.2-.62-.18-.35-.1h-.08l.13,0h-.09l-.17,0-.66.12-.65.24-.16.06,0,0-.13,0h0l-.09,0-.36.08-1.46.32-1.47.33-.75.16-.74.15-.76.13-.19,0-.19,0-.39.05-.19,0-.19,0-.39,0-.39,0-.39,0v-1.4h1.16l.58,0,.29,0,.29,0,.58-.06.59-.08,1.17-.19,2.37-.43.59-.1.15,0h0l-.11,0h0l.08,0,.3-.11.61-.2h.16l.17,0,.16,0,.08,0h.06l1.48-.68h0l.4-.5.2-.25.26-.22.25-.22.07-.06,0,0,0,0h0l.16-.08.33-.15.08,0,.05,0h0l.19,0,.38,0h.19l.18,0,.18,0,.09,0h.08l.31.15.16.07,0,0h0l.07,0,.27.17.13.09.06,0,.06,0,.21.17.83.67.21.17.11.08.1.08.22.15.11.08,0,0,0,0,.06,0,.46.27.5.2.06,0h.06l.14,0,.26.06.13,0h.4Z" transform="translate(-21.2 -22.05)"/><path class="cls-7" d="M221.44,454.45l1.69,2-.53.45-.52.46-.27.24h0l-.7.35H221l-.09,0-.18,0L220,458l-1.52.1-1.36.07-1-.88-1.08-.93-.55-.44-.13-.11-.14-.11-.28-.2-.28-.21-.14-.1-.14-.09-.57-.38,1-1.74.55.3.28.16.13.07.13.09.52.33.26.17.25.17.5.35.24.18.24.18.48.36.24.19.12.09.05,0,0,0h0l.21,0h0l1.1-.13.55-.07.56-.09.28-.05.14,0h.06l-.67.33h0l0-.05.43-.42.43-.41Z" transform="translate(-21.2 -22.05)"/><path class="cls-7" d="M245.26,456.9l-1.29,3-.46-.36-.43-.4-.42-.4-.22-.19-.12-.09-.11-.09-.24-.18-.12-.08-.12-.08-.12-.08-.13-.07-.13-.07-.13-.07-.13-.07-.13-.06-.13-.06-.14-.05-.27-.1-.14,0-.14,0-.14,0-.15,0-.28-.05-.29,0-.29,0-.29,0h-.29l-.59.05h-.18l0,0-.06,0-.26.14-.51.28-.5.3-.5.31-1,.63-1,.66-1.9,1.36-1,.67-.48.33-.56.37-2.21,1.44-.34-1.28-.16-.65,0-.16,0-.19-.08-.39,0-.1v-.1l0-.19-.05-.39,0-.76v-.73l0-.71.11-1.32,0-.6v-.78l0-.23,0-.19v0h0v0l0-.08,0-.07h0l0,0,0-.07,0,0h0l0,0,0-.05,0-.05v0h0l.33.24h0l0,0-.06,0h-.06l-.07,0h-.45l-.1,0h-.1l-.21.05-.22.08h-.06l-.05,0-.12.05-.12.05-.11.06-.12.06-.12.06-.24.14-.24.15-.25.16-.24.17-.48.36-.48.39-.48.4-.48.42-.24.21-.12.11h0l-.7.34H221l-.67.08-.33,0-.34,0-1.38.08-.14-2.38,1-.11.5-.06.5-.08.51-.08h.12l-.67.33.09-.1.2-.19.78-.75.41-.37L222,454l.44-.36.23-.17.23-.17.24-.17.24-.17.52-.31.28-.15.14-.08.14-.06.3-.14.31-.11.16-.06.17,0,.17,0,.08,0,0,0h0l.36-.07h.75l.38,0,.2,0,.2,0,.2.06.21.06.21.08.2.1h0l.33.24h0l0,0,0,0,.07.08.13.15.13.16,0,0,0,0,0,.08.21.36.05.09,0,.09.08.18.07.18,0,.09v.05l0,0,.09.36,0,.18,0,.17,0,.34v.32l0,.32v.87l0,.55-.05,1,0,.48v.44l-.33-.44h0l1.85-1.34.93-.67.94-.64.95-.63.48-.3L235,455l.12-.08.12-.06,1-.51,1-.48.25-.12h.27l.57,0h.56l.28,0,.28,0,.28,0,.28.05.14,0,.14,0,.27.07.27.07.27.09.26.1.26.1.13.06.13.06.25.12.25.13.24.15.24.15.23.15.22.16.22.18.86.72.21.18.11.09.11.09Z" transform="translate(-21.2 -22.05)"/><path class="cls-7" d="M264.93,454.12l-1.06-1.64-.35.22-.33.24-.3.23-.29.24-1.1.92-.53.42-.26.2-.27.18-.26.18-.13.08-.14.08-.13.07-.13.08-.27.13-.27.12-.07,0-.07,0-.13,0-.14.05h-.06l-.07,0-.14,0-.07,0h0l.18,0h-1.17l-.16,0-.64-.05-.32,0-.31-.05-1.23-.18-.25.57-.13.29-.07.15-.07.15-.31.63-.15.31-.16.29-.33.6-.08.14-.09.14-.17.27-.18.28-.08.14-.1.12-.37.49-.38.4,0,.05h0l0,0-.09.06-.18.15,0,0h0l-.09,0-.08,0-.08,0h-.14l-.07,0h-.3l-.09,0-.09,0-.09,0h-.07l0,0-.1-.05-.22-.1,0,0h0l0,0-.12-.08-.23-.15-.12-.07,0,0h0l0,0-.06-.05L247.39,463l.13.1.15.09.3.18.3.18.07,0h0l.05,0,.17.08.36.15.17.07.09,0h.1l.41.1.41.08h1l.11,0,.22-.06.45-.12.1,0h.06l0,0,.19-.1.38-.2.19-.11h0l0,0,0,0,.07-.06.3-.24.3-.25.24-.27.23-.26.12-.14.06-.06,0,0,0,0,.38-.54.19-.27,0-.07,0-.07.08-.14.31-.54.16-.28.13-.27.27-.55.13-.27.06-.14,0-.07,0,0v0l.34-.25h.94l.31,0,.62-.05.31,0h0l.18,0H259l.09,0,.16-.05.16-.06.08,0,.08,0,.32-.12.07,0,.08,0,.15-.08.3-.15.28-.16.14-.09.14-.08.27-.18.25-.19.25-.19.25-.2.46-.39.44-.41.42-.4.8-.77.39-.35.19-.16Z" transform="translate(-21.2 -22.05)"/><path class="cls-7" d="M273.61,458.27l-.11.88h-.12l-.11,0-.23,0H273l-.05,0-.11,0-.11,0,0,0-.05,0-.2-.1-.1-.05-.05,0-.05,0-.36-.24-.33-.26,0,0,0,0-.08-.07-.15-.14-.15-.15-.14-.15-.27-.31-.26-.31-.12-.16,0,0h0l.14.15h0l0,0-.07,0-.57-.31-.62-.18-.14,0-.08,0-.18-.05h0l0,0,0,0-.05-.08-.05-.08-.09-.13-.21-.3-.11-.15-.11-.14-.22-.29-.23-.26-.12-.13-.12-.12-.11-.12-.06-.06,0,0,0,0-.24-.2-.24-.17-.24-.12-.11,0-.06,0h-.35l-.09,0h-.05l-.05,0-.11,0-.11.05-.06,0-.06,0-.81-1.74.09,0,.05,0,.05,0,.2-.06.1,0,.05,0h.06l.21,0,.11,0H266l.23,0h.11l.11,0,.22.06h0l.05,0,.1.05.19.08.05,0,0,0,.09.05.17.11.08,0,0,0,0,0,.15.12.15.12,0,0,0,0,.06.06.26.25,0,0,0,0,.06.06.11.14.11.13.06.06,0,.07.2.27.1.14.09.14.18.27.09.14,0,.07,0,0v0h0l.54.49h0l.16.07.08,0,0,0h0l.29.19.58.39.14.15h0v0l0,0,0,.06.08.12.16.24.34.45.18.22.09.1,0,.05.05.05.2.19.2.17,0,0,0,0,0,0,.11.07.11.07,0,0h0l0,0,.11.06h.06l.06,0,.11,0h.12Z" transform="translate(-21.2 -22.05)"/><path class="cls-9" d="M782.53,541.67a5.47,5.47,0,0,1-2.11,1.55,50.44,50.44,0,0,0-5.84,2.93l-.88.57a3,3,0,0,0-1.55,2.92c2.48,14.38-8.07,28.73-35.17,29.92a11.29,11.29,0,0,0-2.36.35c-1.4.37-2.86.7-4.38,1-7.13,1.41-14.25-4.23-22.52-1.32-1.58.47-3.32,1.06-5,1.72-8,3.07-15.22,7.43-22.71,11.37a9.44,9.44,0,0,1-3.24.94c-1.51.17-3.08.32-4.66.47-1,.09-2,.27-3,.4a10.43,10.43,0,0,1-5.44-.77c-10.44-4.78-23-9.87-36.72-7.16-4.66,1.38-9.32.05-13.69-1.19l-.51-.13c-2-.45-4-.86-6.14-1.19a102.84,102.84,0,0,0-25.61-.52,11.35,11.35,0,0,1-3.78-.24c-1-.24-2-.52-3.11-.82-4.28-1.18-8.64-2.33-13.18-3.36-1.3-.3-2.61-.58-3.91-.82a11.34,11.34,0,0,0-1.32-.15c-28.28-1.73-29.67-19.59-28.25-33.19a2.18,2.18,0,0,0,0-.72q-.24-1.11-.42-2.28a3.59,3.59,0,0,1,0-.47,5.84,5.84,0,0,1,.53-2.29,3,3,0,0,1,.6-.84c6.53-6.84,9.14-14.57,11.51-22.32l.07-.24c.55-1.78,3-3.13,6.05-3.28,20.87-1,35.53-7.44,45-18.75a7.09,7.09,0,0,1,4.22-2.07l2.56-.42c1.87-.29,3.75-.54,5.64-.77,1.25-.13,2.87-.32,4.63-.55a10,10,0,0,0,2.39-.61c17.06-6.86,34.78-6.35,52-2.61a17.62,17.62,0,0,0,2.09.19,11.93,11.93,0,0,0,2.55-.2c15.29-2.95,30.82-1.28,43,4.7.89.44,1.62.79,2.24,1.11a9.57,9.57,0,0,0,3.11.89c18.69,2.28,33.48,8.13,43.75,17.45l1.68,1.55a7.61,7.61,0,0,0,4,1.71c12,1.9,20.45,7.31,21.56,14.58,1.19,4.23,0,8.46-3.4,12.81Z" transform="translate(-21.2 -22.05)"/><path class="cls-7" d="M568.24,521.41a37.93,37.93,0,0,0,4.38.31c1.45,0,2.91,0,4.36,0l-.09-1.41c-1.43.15-2.86.27-4.3.36a40.81,40.81,0,0,1-4.28.08Z" transform="translate(-21.2 -22.05)"/><path class="cls-7" d="M565.28,520.32l.27-.28a3,3,0,0,0,1.49.55l-.12.55A3.49,3.49,0,0,1,565.28,520.32Z" transform="translate(-21.2 -22.05)"/><path class="cls-7" d="M578.28,521.65l-.1-1.48,1.56-.12.48,1.59C579.57,521.65,578.92,521.68,578.28,521.65Z" transform="translate(-21.2 -22.05)"/><path class="cls-7" d="M614.79,527.82a1.79,1.79,0,0,0,.4,0,1.71,1.71,0,0,0,.4,0l-.27-1.88c-.05,0-.09,0-.13,0a.25.25,0,0,1-.12,0Z" transform="translate(-21.2 -22.05)"/><polygon class="cls-7" points="593.3 505.73 593.78 503.86 593.83 503.87 593.46 505.76 593.3 505.73"/><polygon class="cls-7" points="594.5 505.74 594.15 503.89 594.21 503.88 594.66 505.71 594.5 505.74"/><path class="cls-7" d="M632.38,520.31c.37,0,.67,0,1.12,0a2.13,2.13,0,0,0,1.23-.52l0,0,0,0a8.26,8.26,0,0,0,1-1.68l-.81-.4a7.18,7.18,0,0,1-.92,1.49l0,0a1.18,1.18,0,0,1-.72.29c-.27,0-.69,0-1,0Z" transform="translate(-21.2 -22.05)"/><polygon class="cls-7" points="609.76 498.24 609.78 497.28 610.58 497.3 610.57 498.25 609.76 498.24"/><polygon class="cls-7" points="614.88 495.45 614.06 495.08 614.37 494.36 615.2 494.7 614.88 495.45"/><path class="cls-7" d="M682.76,530.31l.75-.43c.22-.15.4-.32.6-.48l-2.05-2.33c-.11.08-.22.19-.31.27a1.48,1.48,0,0,0-.27.16Z" transform="translate(-21.2 -22.05)"/><path class="cls-7" d="M682.11,530.54l-.75-3,.07,0,1.06,2.89Z" transform="translate(-21.2 -22.05)"/><path class="cls-7" d="M684.3,529.27,682.17,527a.89.89,0,0,0,.13-.14l2.2,2.21C684.43,529.14,684.38,529.21,684.3,529.27Z" transform="translate(-21.2 -22.05)"/><path class="cls-7" d="M696.88,519.48a12.71,12.71,0,0,1,1.23-1.31,2.59,2.59,0,0,1,1.58-.76,2,2,0,0,1,1.46.92,7.72,7.72,0,0,1,.88,1.56,27.63,27.63,0,0,0,2.86,6.54l1.77-2.81a32.3,32.3,0,0,1-2.13-3.78c-.62-1.24-1.06-2.43-1.64-3.63a9.71,9.71,0,0,0-1.1-1.63,2.58,2.58,0,0,0-1.77-1,3.19,3.19,0,0,0-1.87.76,14.64,14.64,0,0,0-1.48,1.35Z" transform="translate(-21.2 -22.05)"/><path class="cls-7" d="M693.62,523.32l-1-3.36a30.37,30.37,0,0,0,2.4-2.42l.53,3.66A16.71,16.71,0,0,1,693.62,523.32Z" transform="translate(-21.2 -22.05)"/><path class="cls-7" d="M707,528.08l.87-2.69a.75.75,0,0,0,.59,0,4,4,0,0,0,1-.62l1.76,2.08a6.43,6.43,0,0,1-1.68,1.1A3.55,3.55,0,0,1,707,528.08Z" transform="translate(-21.2 -22.05)"/><path class="cls-7" d="M741.23,519.84l1-.12,0-.35-1,0Z" transform="translate(-21.2 -22.05)"/><polygon class="cls-7" points="719.68 497.83 719.64 497.36 719.84 497.35 719.88 497.81 719.68 497.83"/><path class="cls-7" d="M742.34,519.71v-.33a1,1,0,0,1,.23,0l0,.3Z" transform="translate(-21.2 -22.05)"/><path class="cls-7" d="M604.54,507.24l2.12.77-2.16,6.4-2.24,6.38-.59,1.59-.62,1.6-.64,1.58-.68,1.58-.72,1.57-.38.78-.4.78L596.75,533l-.73-1.3-.36-.65-.19-.36-.21-.4-.2-.41-.19-.4-.18-.41-.09-.2-.09-.21-.33-.82-.31-.82-.3-.82-.28-.81-.54-1.63-.53-1.61-.27-.79-.28-.78-.14-.39-.07-.19-.08-.19-.15-.37-.08-.19-.08-.18-.16-.36-.09-.18,0-.08,0-.09-.18-.34-.09-.17,0,0,0,0,0-.08-.2-.31-.1-.15L590,517l-.21-.28,0,0h0l.65.34h-.45l-.13,0-.13,0h-.07l-.07,0-.07,0h-.07l-.14.06,0,0h0l-.08,0-.15.08-.15.08-.07,0-.08,0-.15.1-.3.22-.3.24-.3.25-.3.27-.59.57-1.17,1.19-.32.33-.09.08,0,.05h0l-.22.07-.44.16-.21.07-.06,0h0l0,0h-.11l-1.15-1.44h.17l.14,0,.29-.1.29-.1.07,0,0,0,.1-.12.89-1,.47-.52.49-.52.51-.5.26-.25.28-.25.15-.12.15-.12.15-.12.15-.11.16-.12.17-.11.17-.11.18-.1.19-.1.19-.09.1,0,.05,0,0,0,.21-.08.11,0,.11,0,.22-.06.11,0,.12,0,.23,0,.24,0h.68l.65.34h0l.52.61.44.63.11.16.09.16.19.32.19.32.16.33.17.32.08.16.07.17.29.65.27.65.26.65.25.66.46,1.29.92,2.55.47,1.25.25.61.13.31.06.15,0,.07v0h0l.54-1.21.51-1.22,1-2.47,1.89-5,1.91-5Z" transform="translate(-21.2 -22.05)"/><path class="cls-7" d="M606.39,520.51l0-2.57-2.88-.05-1.47,0h-.24l-.14,0-.15,0-.16,0-.16,0-.16,0-.17.06-.16.07-.11.06-.14.08-.29.15h0v0l0,0,0,.07,0,.15-.12.32-.25.67-.5,1.34-1,2.66,2.52,1,.85-2.17.41-1.09.19-.55.1-.27,0-.14,0-.07v-.05h0l-.35.16h2.12Z" transform="translate(-21.2 -22.05)"/><path class="cls-7" d="M613.26,527.14l1.25-1.56,0,0h0l0,0-.07-.08-.14-.15-.14-.18L614,525l0,0,0-.05-.14-.2-.06-.09-.07-.11-.12-.21-.07-.11-.06-.11-.23-.45-.22-.47-.11-.24-.1-.25-.21-.48-.19-.5-.18-.51-.36-1-.62-1.92-.45-.08-.23,0h-.29L609,518l-2.25,0-4.51-.07,0,2.68,3.56,0,1.79,0h1.33l.2,0h.17l.15.08h0l.33.85.35.84.18.42.19.42.2.42.2.42.23.41.11.21.12.2.24.41.13.21.14.2.14.2.15.2.15.2.08.1.09.1.18.19.08.1.1.09.21.19.1.09Z" transform="translate(-21.2 -22.05)"/><path class="cls-7" d="M629.65,520.27l0-1-8.77-.39-.12.23-.18.34-.58,1-.59,1-.31.49-.31.48-.32.48-.32.46-.34.46-.35.43-.36.42-.36.38-.19.17-.1.09-.05,0,0,0-.2.15,0,0,0,0-.1.06,1,1.52.23-.17.21-.18.2-.18.19-.19.18-.19.17-.2.17-.19.15-.2.16-.2.14-.2.29-.41.27-.4.26-.42.25-.41.24-.41.47-.84.45-.84.22-.42.11-.21,0-.11,0,0v0h0l.75-.49h0Z" transform="translate(-21.2 -22.05)"/><path class="cls-7" d="M642.88,515.74l-.94.51-.34-.62-.35-.62-.18-.3-.18-.3-.09-.14-.1-.15-.19-.28,0-.07-.05-.06-.11-.13-.1-.13-.05-.07,0,0,0,0-.22-.22,0,0h0v0l-.06,0-.11-.09-.06,0,0,0,0,0-.11-.05,0,0h-.15l-.05,0h-.23l0,0,0,0,0,0-.08-.06,0,0h0l0,0h-.14l-.07,0-.08.06-.09.09-.1.12,0,0,0,0,0,.06,0,.07,0,.07-.09.14-.08.15-.15.3-.15.32-.28.65-.53,1.34-.84-.32.42-1.09.21-.55.24-.54.13-.28.13-.27.16-.27.08-.14.09-.13,0-.07.05-.07.11-.13,0,0,0,0,.06-.07.07-.06.08-.07.08-.06,0,0,0,0h0l.1-.05.06,0h.05l.12,0,.12,0h.24l1.22.45h0l.17.08.14.1.27.21.23.22.11.11.06.06,0,.06.19.24.1.11.09.12.18.25.09.12.08.12.33.5.3.49Z" transform="translate(-21.2 -22.05)"/><path class="cls-7" d="M652.12,520.19l-1.17,1-.3-.34,0,0h0l.14.11h0l0,0-.08-.05-.18-.1-.18-.08-.2-.08-.45-.16h0l.24,0h-5.51l-.11-.17-.18-.27-.28-.45-.26-.44-.49-.9-.48-.9-.93-1.77-.49-.86-.26-.42-.07-.1-.06-.1-.14-.2.81-.59.13.17.12.18.23.34.44.7.81,1.42.8,1.4.4.68.21.34.1.17.06.08,0,0,0,0h0l.72.35h0l3.18-.15.79,0h.37l.24,0h0l.4.11.21.07.21.07.22.09.22.1.21.12.05,0,.15.12h0l0,0,.08.08Z" transform="translate(-21.2 -22.05)"/><path class="cls-7" d="M668,529.86l1.48-2.23-.21-.15-.23-.2-.23-.23-.24-.26-.49-.56-.49-.6-1-1.25-1-1.26-.53-.62-.55-.62-.56-.6-.08-.08v0h0l-.66-.37h-.06l-.19,0-.39-.08-1.54-.3-.37-.08-.29-.07-.59-.14-.44,1.09,0,.06,0,0,0,0,0,0-.13.12,0,0h0l-.31.42h0v0l0,.09-.07.17-.15.36-.32.67-.17.33,0,.08,0,.08-.09.15-.09.15-.1.15-.09.14,0,.07,0,.06-.1.12,0,.06h0v0l0,0-.1.1,0,.05,0,0-.09.07-.07.05,0,0h-.31l-.09,0-.11-.06h-.06l0,0-.12-.09-.12-.1-.07,0-.06-.06-.12-.12-.12-.13-.13-.13-.12-.14-.24-.28-.49-.61-1-1.29-1.36,1,.72,1.07.38.54.39.54.21.28.23.27.11.14.13.13.13.14.14.13.14.13.16.14.16.12.19.13.09,0,0,0,.05,0,.22.11.12,0,.12,0,.26.07.28,0h.28l.28,0h.13l.14,0,.13,0,.06,0h0l0,0,.23-.11.11-.06h0l0,0,0,0,.19-.13.09-.07,0,0,0,0,.16-.14.16-.14.13-.15.13-.15.07-.07,0-.07.23-.3.06-.08,0-.07.1-.15.2-.3.35-.61.32-.61.15-.3.07-.15,0-.08v-.06l.74,0h0l.63.14.32.08.15,0,.08,0h.08l-.63-.35.8.94.39.48.39.48.76,1,1.55,2,.42.53.22.26.23.27.26.26.13.14.14.13.15.13.07.07.08.06.17.13.09.07,0,0Z" transform="translate(-21.2 -22.05)"/><path class="cls-7" d="M682.92,525.19l.1-3.05-4.32-.1-2.16,0-1.07,0-1.05,0-1.12,1.8-.58.88-.29.44-.3.42-.15.21-.16.2-.15.2-.16.19-.31.38-.32.35-.32.3-.15.13-.07.06,0,0h0l0,0-.14.1h-.06l0,0-.06,0h-.11l.42,2.69.1,0h.09l.18,0,.17,0,.09,0h0l0,0,.3-.14.15-.07.13-.08.26-.16.12-.08.11-.08.22-.17.11-.09.09-.09.38-.35.35-.36.08-.08.08-.09.16-.19.16-.18.15-.18.29-.36.28-.37.54-.73.52-.74.25-.37.12-.19.06-.09,0,0v0h0l.09,0h0Z" transform="translate(-21.2 -22.05)"/><path class="cls-7" d="M680.41,530.5l.7-3,0,0h-.13l-.13-.08-.12-.08-.07,0h0l0,0-.14-.13-.3-.25-.59-.66-.58-.76-.07-.1,0-.05,0,0-.14-.21-.27-.41-.28-.41-.26-.44-.52-.86-.51-.88-8.41-.25-.12,2.74,3.38.17,1.7.09.84.05.42,0H675l.08.06h0l.43.75.47.74.24.37.11.19.14.18.53.74.13.18.16.18.31.37.31.36.39.35.39.35,0,0,0,0,.06,0,.13.08.25.16.25.16.13.07,0,0h0l.08,0,.32.11Z" transform="translate(-21.2 -22.05)"/><path class="cls-7" d="M692.2,524.17l-1.19-3-.09,0h-.07l-.08,0,0,0h0l.13,0h-.06l-.68.07-1.37.12-1.43.13-.22,0-.23,0-.23,0-.24.07-.76.23h0l0,0,0,0-.05.08-.1.16-.19.31-.36.58-.37.58-.37.57-.18.28-.19.28-.37.54-.1.13-.09.13-.2.25-.19.25-.1.12-.05.07,0,.05,2.37,2.06.06-.06,0-.06.1-.12.2-.24.38-.48.69-1,.65-1,.31-.48.16-.24.07-.12,0-.06,0,0v0h0l-.25.13h0v0l.2,0,.23,0,.54,0,1.12-.09,1.11-.09.28,0h.17l.17,0,.1,0,.41-.11.1,0,.1,0Z" transform="translate(-21.2 -22.05)"/><path class="cls-7" d="M722.41,521.09l-.27-2.1h-.3l-.38,0-.86-.08-1.73-.16-1.73-.16-1.6-.16-1.17,1.17-.63.65-.62.66-1.2,1.31-.59.64-.59.62,2,1.82,1-1.09.91-1.08.91-1.06.46-.52.23-.26.11-.13.06-.06,0,0,0,0h0l.22-.1h0l2.82.14,1.4.07.72,0h.64Z" transform="translate(-21.2 -22.05)"/><path class="cls-7" d="M726.92,514l.17,1.69H727l-.09,0-.16.06-.17,0-.16.1-.32.19-.3.28-.16.13,0,0h0l0,0-.07.08-.28.35-.14.16,0,0,0,0,0,0-.06.1-.25.38-.13.2-.06.09,0,.05,0,.06-.22.42L724,519l0,.11-.06.1-.09.23-.7,1.58-.84.14H721.1l-2.07-.09L717,521l-2.05-.14.22-2.44,1.63.18,1.62.15,1.62.15.81.08.41,0,.2,0h.18l.19-.14h0l.19-.38.09-.19,0-.09.06-.09.44-.74.22-.37.26-.36.26-.36.13-.17.06-.09.08-.09.62-.67,0,0,0,0,0,0,.09-.07.19-.15.37-.3.1-.07.11-.06.23-.12.45-.23H726l.06,0,.13,0,.26-.07.26-.06.13,0h.13Z" transform="translate(-21.2 -22.05)"/><path class="cls-7" d="M739.92,519.46l.05.56-2,.25-2,.21-2,.18-.5,0-.55,0h-.5l-.1-.17,0-.08-.11-.18-.52-.82-.07-.1-.07-.1-.14-.2-.28-.39-.14-.2-.07-.09-.07-.1-.3-.37-.3-.37-.32-.33-.32-.34-.35-.29-.17-.15-.08-.07-.09-.06-.36-.23-.08-.06,0,0,0,0-.19-.08-.18-.08-.09,0h-.08l.52-1.55.06,0h0l0,0,.11,0,.21.11.43.22.72.55.63.61.07.07,0,0,0,0,.13.17.27.32.13.16.07.09,0,0,0,0,.23.34.24.34.12.17.06.09,0,.09.43.7.1.17.1.18.1.18.05.09,0,0v0l.65.44h0l3.14-.05Z" transform="translate(-21.2 -22.05)"/><path class="cls-7" d="M737,559.05c-.07.13-.15.26-.21.27s-.07,0-.19,0a2.75,2.75,0,0,1-.75-.53c-.51-.48-1-1-1.55-1.55a14.75,14.75,0,0,0-1.72-1.51,8.52,8.52,0,0,0-1-.66c-.17-.09-.35-.2-.53-.28l-.28-.13h0l.11.05h0l0,0-.06,0-.14-.08-.69,1.28.33.17.23.08.46.2a8.09,8.09,0,0,1,.9.5,17.87,17.87,0,0,1,1.7,1.27c.56.47,1.1,1,1.71,1.44a3.41,3.41,0,0,0,1.12.62,1,1,0,0,0,.87-.16,1.49,1.49,0,0,0,.41-.62Z" transform="translate(-21.2 -22.05)"/><path class="cls-7" d="M737.48,556.12h.39a17.84,17.84,0,0,1,0,1.79l-.57-.07A16.34,16.34,0,0,0,737.48,556.12Z" transform="translate(-21.2 -22.05)"/><path class="cls-7" d="M729.24,553.94l-.42,1.49a6.75,6.75,0,0,0-1.57-.18l.07-1.66A8,8,0,0,1,729.24,553.94Z" transform="translate(-21.2 -22.05)"/><path class="cls-7" d="M652.52,557c-.39.71-.72,1.25-1.11,1.83a10.65,10.65,0,0,1-1.29,1.53,4,4,0,0,1-3.22,1.38l-.1,1.5a4.66,4.66,0,0,0,2.41-.53,6.91,6.91,0,0,0,1.84-1.44,13.24,13.24,0,0,0,1.36-1.77c.38-.62.77-1.3,1-1.83Z" transform="translate(-21.2 -22.05)"/><path class="cls-7" d="M654.39,554.53l.54,1-.65.4a7.32,7.32,0,0,0-.33.69l-.78-.86c.15-.25.27-.53.44-.77Z" transform="translate(-21.2 -22.05)"/><path class="cls-7" d="M645.88,561.48l-.52,1.48a8.59,8.59,0,0,1-1.7-.81l.91-1.4A6.79,6.79,0,0,0,645.88,561.48Z" transform="translate(-21.2 -22.05)"/><path class="cls-7" d="M605.62,547.91c-.19-.27-.39-.53-.59-.79a10.15,10.15,0,0,0-.67-.79l-2.28,2.06a3.59,3.59,0,0,1,.34.43l.36.48.7,1Z" transform="translate(-21.2 -22.05)"/><polygon class="cls-7" points="584.82 526.4 582.78 528.91 582.5 528.52 584.6 526.08 584.82 526.4"/><polygon class="cls-7" points="582.92 523.99 580.71 526.1 580.45 525.84 582.56 523.64 582.92 523.99"/><path class="cls-7" d="M583.31,561.44a1.57,1.57,0,0,1-.26.13l.44,1.86a2.86,2.86,0,0,0,.76-.29Z" transform="translate(-21.2 -22.05)"/><path class="cls-7" d="M583.41,561.37l1.07,1.63-.13.08-1-1.68Z" transform="translate(-21.2 -22.05)"/><polygon class="cls-7" points="561.82 539.51 562.15 541.39 561.97 541.41 561.78 539.51 561.82 539.51"/><path class="cls-7" d="M573.46,552.1a3.55,3.55,0,0,0-1.6,1.21,11.19,11.19,0,0,0-1.23,1.79l.18.71a14.06,14.06,0,0,1,.94-1.54,3.18,3.18,0,0,1,1.35-1.17Z" transform="translate(-21.2 -22.05)"/><path class="cls-7" d="M574.92,552.27l-.59.94a1.54,1.54,0,0,0-.69-.21l.45-1A2,2,0,0,1,574.92,552.27Z" transform="translate(-21.2 -22.05)"/><path class="cls-7" d="M570.27,555.77l.25.49a.55.55,0,0,1-.13.14.3.3,0,0,1-.29,0,.41.41,0,0,1-.13-.18,1.57,1.57,0,0,1-.05-.46l.33,0a1.81,1.81,0,0,0,.07.34s0,0,0,0-.11,0-.14-.08S570.24,555.85,570.27,555.77Z" transform="translate(-21.2 -22.05)"/><path class="cls-7" d="M718.85,560.33l-1.35-1.79,0,0h0l.05,0,.1-.08,0,0,0,0,0,0,.09-.1.1-.1,0-.05.05-.06.2-.22.05-.06,0-.06.1-.13.19-.25.36-.54.34-.57.33-.59.32-.6.12-.24.1-.22.52-.21.22-.07.21-.06.21,0,.2,0,.73-.12.71-.11.72-.1.73-.08.73-.07.37,0H726l.11,1.74-.54.06-.54.08-1.09.19-1.09.22-.55.12-.26,0-.11,0-.06,0h-.05l-.13.18h0l-.12.26-.13.26-.27.53-.29.52-.15.25-.16.26-.08.13-.08.13-.18.26-.09.12,0,.07,0,.06-.2.25-.1.13-.11.12-.23.25,0,.06-.07.06-.13.12-.13.12-.07.06Z" transform="translate(-21.2 -22.05)"/><path class="cls-7" d="M684.56,538.83l-1.3,1.29,4.16,4.47,4.19,4.45,4.24,4.4.54.54.26.28.07.06h0l0,0,.06.09.07.12.15.28.29.64.15.32.07.16.07.16.26.64.53,1.27.9-1.06.44-.53.12-.13.11-.12.23-.25.23-.25.24-.22.24-.22,0,0,0,0,.06-.05.13-.09.24-.19,0,0h0l.06,0,.13-.07.26-.16.27-.11.13-.06.07,0h.07l.27-.08.13,0,.15,0,.28-.05.29,0h.29l.3,0h.15l.16,0,.15,0h.16l.31.07.08,0h.08l.16,0,.32.09.33.12.17,0,.16.07.67.27,1.38.61.36.16.08,0,.05,0h0l-.22-.13h0l.14.11.3.21.29.23.58.45.57.48,1.14,1,1.17,1,.31.26.33.26.16.13.18.13.17.12.18.13.19.12.2.12.2.12.22.11.23.1.24.1.13,0,.06,0,.07,0,.27.07h.07l.07,0h.15l.29,0h.46l.15,0,.3-.06h.07l.07,0,.14-.05.14,0,.07,0h0l0,0,.24-.13-1.09-2-.07,0,0,0h0l-.07,0h-.48l-.08,0h-.08l-.19-.08-.19-.1-.21-.13-.05,0,0,0-.11-.07-.1-.08-.11-.08-.22-.17-.43-.37-.44-.4-1.81-1.68-.47-.42-.49-.42-.5-.41-.51-.4-.25-.2,0,0h0l-.23-.13h0l-.07,0-.14-.07-.55-.26-1.14-.53-.3-.14-.3-.12-.31-.13-.32-.11-.31-.12-.33-.1-.34-.1-.34-.09-.35-.08-.36-.05-.36-.06-.38,0-.37,0-.38,0H703l-.38.06-.19,0h-.19l-.37.11-.37.11-.35.15-.35.15,0,0,0,0-.08.05-.16.09-.32.19-.17.09-.07.06,0,0-1.24-.31h0L695.12,549l-3.5-3.39Z" transform="translate(-21.2 -22.05)"/><path class="cls-7" d="M682,552.2l1.1-1.38,4.61,3.42L690,556l.55.41.28.2.27.18.28.18.13.09.13.07.27.14.13.08h0l0,0,.06,0,.25.1.12,0h.11l.22.05h.4l0,0,.08,0,.08,0h.08l.08-.06.09-.05.08,0,.05,0h0l0,0,.18-.17.18-.17.18-.23.17-.22.09-.12.05,0,0-.07.32-.54.17-.27.14-.3.29-.59.15-.3L696,554l.26-.63.48-1.22.47-1.2.91.91.46.47.11.11.13.13.1.13.09.12.07.11.14.2.21.39.09.18.09.17.32.71.17.36.14.33.28.67,2.2,5.35L707,572l-2.21.92-3.67-8.51-1.82-4.27-.9-2.13-.45-1.07-.22-.53-.11-.27-.06-.13,0-.07,0,0,.41.15h0l-.28.55-.07.14,0,.06,0,.07-.17.27-.35.54-.08.13,0,0,0,0-.05.07-.22.26-.43.52-.28.25-.28.24-.14.12-.07.06,0,0,0,0-.36.2-.36.19-.09,0h0l-.06,0-.21.05-.42.11-.21,0h-.95l-.1,0-.38-.09-.19-.05-.09,0h-.1l-.65-.29-.08,0,0,0,0,0-.15-.09-.28-.17-.28-.17-.25-.18-.51-.37-.46-.38Z" transform="translate(-21.2 -22.05)"/><path class="cls-7" d="M680.63,553.72l.39-1.65.13,0,.13,0,.25.08.5.16.13,0,.12,0,.25.09.49.19.13,0,.06,0h0l0,0,.23.12.46.26.23.12.06,0,0,0,.11.08.42.29.43.3,0,0h0l-.15-.1h.05l.08,0,.15.06.15,0,.15,0,.15,0h.31l.16,0,.16,0,.16,0,.66-.19h0l0,0,.06,0,.14.11.31.24.78.6,1.51,1.16.74.53.37.24.18.12.18.1.36.19,0,0h.06l.09,0,.17.07.16.07h.15l.15,0H693l-.26,2.48h-.14l-.13,0-.26-.07-.25-.06-.13,0h-.06l-.06,0-.44-.2-.22-.1,0,0-.05,0-.1-.06-.38-.23-.19-.12,0,0,0,0-.08-.06-.68-.5-.63-.51-.6-.51-.58-.51-.3-.25-.14-.13-.07-.06,0,0h0l-.6-.16h-.51l-.25,0-.26,0-.25-.07-.24-.08-.23-.09-.23-.11-.22-.12h0l-.16-.1,0,0-.07-.05-.27-.22-.27-.22-.14-.11,0,0,0,0-.07-.05-.58-.37-.15-.09-.16-.07-.3-.16-.31-.15h0l0,0-.08,0-.17-.06-.32-.11-.16-.06h-.09Z" transform="translate(-21.2 -22.05)"/><path class="cls-7" d="M656.91,554.93l-.15-1.12H657l.26,0h.06l.07,0,.12,0,.25.09.23.11.12.05,0,0,0,0,0,0,.23.14,0,0,.06,0,.1.08.21.15.1.09.1.08.2.17.19.19.19.18.19.19.18.2.18.2.35.41.34.41.67.82.31.36.32.34.17.15.08.07.08.07.17.13.17.1,0,0H663l.08,0,.08,0h.08l.08,0h.23l.07,0,.07,0h0l0,0,.08,0,.07,0,.08-.06.15-.13.28-.31.26-.37,0-.05,0,0,.06-.1.11-.2.12-.2.1-.21.21-.42.18-.44.1-.22.09-.23.16-.45.31-.81.81.34.45.18h0l-.2,0h.09l.1,0,.2,0,.2-.06.21-.07.1,0,0,0h.05l.2-.11.39-.22.2-.11.1,0,0,0h0l.17-.08h0l.94-.29,1.87-.61,1-.31,1-.29,1-.27,1-.23,1-.19,1-.11.53,0h.53l.53,0h.4l.14,0-.26,1.64-.08,0h-.09l-.18,0-.36,0-.18,0h-.92l-.37,0-.37,0h-.19l-.19,0-.75.09-.75.13-.19,0-.19,0-.38.09-.37.08-.38.1-1.51.4-1.53.42-.77.21-.38.11-.1,0,0,0h0l.15-.07-.19.1-.77.39-.19.1,0,0h-.05l-.1,0-.21.07-.1,0h-.08l-1.78.92h0l-.08.18-.09.18-.18.36-.09.18-.05.09-.06.09-.21.35,0,.09-.06.09-.12.17-.12.17,0,0,0,0L665,559l-.15.16-.07.08,0,0,0,0-.18.15-.09.07-.05,0,0,0-.22.12-.1.06-.13,0-.25.07h-.4l-.13,0-.26-.06-.22-.09-.12,0,0,0h0l-.05,0-.2-.12,0,0-.05,0-.08-.07-.18-.14-.15-.14-.16-.14-.14-.15-.15-.15-.13-.15-.51-.58-.44-.55-.45-.54-.23-.27-.24-.26-.25-.25-.26-.24-.06-.06-.07,0-.14-.11-.07-.06,0,0,0,0-.15-.1-.14-.09-.16-.08-.16-.09-.16-.06-.16-.06h-.18l-.17,0h-.17Z" transform="translate(-21.2 -22.05)"/><path class="cls-7" d="M631.67,557.83l-.52-2.4,3.82-.74.49-.09.51-.06,1-.1,1-.11.24,0h.17l.34,0,1,1.36.59.76.6.75.61.73.31.36.31.35.32.35.33.33.33.33.34.31-1.13,1.34-.32-.26-.31-.27-.31-.27-.3-.28-.29-.28-.29-.28L640,559l-.54-.59-.53-.59-.53-.6-.25-.3-.13-.15-.06-.08,0,0v0h0l-.33-.08h0l-1.44.23-.18,0-.09,0-.09,0-.37.08-.73.18Z" transform="translate(-21.2 -22.05)"/><path class="cls-7" d="M632,560.93l-1.81-1.78.47-.47.45-.51.45-.52.44-.54.87-1.12.43-.57.34-.48.59-.12.74-.13.36-.07h.19l.19,0,.77-.08,1.54-.16h.73l.73,0,.12,2.07-1.17.09-.15,0-.13,0-.28,0-.54.09-1.09.17-.27,0-.14,0-.14,0-.27.06-.14,0-.07,0h-.06l-.19.15h0l-.68,1-.7,1-.37.47-.38.47-.4.46Z" transform="translate(-21.2 -22.05)"/><path class="cls-7" d="M605.92,553.89l1.66-3,1,1.22.93,1.28.24.32.13.15.13.15.12.15.14.14.14.15.14.14.14.13.15.13.15.13.16.12.16.12.16.12.08,0,.09,0,.17.11.08.05.09,0,.18.09.36.16.19.06.1,0,.09,0,.19.06.2,0,.09,0h.1l.2,0,.19,0h.8l.19,0,.2,0,.19,0,.31-.25.31-.25.3-.26.6-.52.58-.54.58-.54.57-.56,1.11-1.13,2.17-2.31,1.1-1.15,1.11-1.14L626.5,545l.31,1.75.15.88,0,.22,0,.24.06.48,0,.24,0,.12v.12l0,.47,0,.48v.48l0,.47v1.4l0,.92-.05.9-.1,1.77,0,.86v1.44l0,.19v.39l0,.37,0,.18,0,.17.09.34.11.3.06.16.07.13.07.13,0,.07,0,0v0h0l-.28-.3h0l.06,0,.06,0,.06,0,.07,0H628l.24-.06.26-.1.28-.14.3-.18.29-.22.08,0,.07-.06.15-.13.15-.13.14-.13.29-.28.29-.29.29-.3.28-.31.55-.65.54-.68.54-.68.52-.7,1.07-1.43,1.84,1.31-1.61,2.37-.43.6-.43.59-.46.59-.23.29-.24.29-.25.29-.26.28L632,561l-.27.28-.14.14-.15.14-.3.27-.32.26-.17.13-.08.06-.09.06-.36.24-.4.22-.11.06,0,0-.05,0-.23.09-.23.09H629l-.12,0-.26.06-.12,0h-.14l-.27,0h-.27l-.29,0-.28,0-.14,0-.14,0-.14,0-.14,0-.14-.05-.14-.06-.13-.07-.13-.07-.13-.08-.13-.08-.12-.09h0l-.28-.3h0v0l0,0-.24-.41-.12-.2v0l0,0,0-.06,0-.1-.17-.42-.08-.21-.06-.21-.12-.42,0-.1,0,0v-.05l0-.21-.07-.41,0-.1v-.1l0-.2,0-.39,0-.2v-.19l0-.77v-.75l.09-2.89,0-1.39V551l.09.46h0l-2.12,2.29-1.07,1.12-1.09,1.09-.55.54-.27.27L619,557l-1.14.93-.57.46-.58.44-.59.43-.59.42-.15.1,0,0h0l-.09,0-.19,0-.18,0h-1.33l-.19,0-.18,0-.19,0-.19,0-.09,0-.09,0-.18-.05-.18-.06-.18-.06-.18-.06-.17-.07-.18-.08-.17-.08-.08,0-.08,0-.17-.09-.08-.05-.08,0-.32-.19-.3-.22-.3-.22-.07-.06-.07-.06-.14-.12-.14-.12-.14-.13-.27-.25-.26-.27-.12-.14-.12-.13-.13-.14-.12-.14-.47-.59-.46-.58-.24-.29-.25-.29Z" transform="translate(-21.2 -22.05)"/><path class="cls-7" d="M584.32,560.49l1.54,1.34.16-.17.15-.18.3-.35.56-.7,1.07-1.36.53-.64.27-.31.28-.29.14-.15.14-.14.28-.27L590,557l.07-.06.08-.06.14-.11.15-.12.15-.09.15-.1.07-.05,0,0h0l.3-.16,0,0h0l.07,0,.16-.06.07,0,0,0h0l-.26.06h.22l.38,0,.39,0h.38l.75.07.37,0,.37.07,1.49.32.21-.73.24-.77.54-1.64.28-.81.3-.79.31-.79.16-.39.17-.38.17-.37.18-.37.09-.18.09-.18.19-.35.19-.33,0-.08,0,0,0,0,.11-.15.1-.15,0,0,0,0,.06-.07.1-.13,0-.07,0,0,0,0,.21-.22.2-.16.08-.06,0,0h.36l.15,0,.1,0,.05,0h0l0,0,1.41-2.68,0,0-.06,0-.12-.05-.24-.1-.13-.05h-.06l-.07,0-.28-.07-.13,0h-.15l-.3,0h-.31l-.31,0h-.23l-.07,0-.3.08-.15,0-.07,0-.07,0-.26.12-.13.07-.06,0-.06,0-.22.15-.22.16-.19.16-.18.16-.09.08-.08.09-.31.34,0,0,0,0-.06.09-.13.17-.13.17-.06.09,0,.09-.22.34-.06.09-.05.08-.09.17-.2.35-.17.34-.17.35-.15.34-.15.35-.14.34-.14.34-.14.35-.25.68-.23.69-.23.69-.21.69-.1.34-.06.17,0,.09v.06l-.42.29h0l-.79,0h-.19l-.2,0-.38,0-.77.08h-.15l-.26.07h0l-.19.09-.39.18-.36.21-.18.11,0,0,0,0-.08.06-.33.23-.09.06-.07.07-.15.13-.3.25-.28.27-.14.14-.14.13-.25.28-.25.28-.24.29-.46.57-.43.58-.41.57-.8,1.14-.4.54-.2.26Z" transform="translate(-21.2 -22.05)"/><path class="cls-7" d="M575,553.77l.76-.85.16.15.07.08.08.09.14.16.14.18.14.17.13.18.12.19.13.18.24.37.11.19.11.18.2.37.2.37.1.19,0,0h0l-.1-.17h0l.06.07.13.12.13.12.14.12.14.1.14.1.15.1.14.08.15.08.15.07.16.06.42.15h0v0l0,0,0,.09,0,.1.07.16.34.72.36.71.09.18.1.17.19.33.1.17,0,.09.05.08.21.31.11.16,0,0,0,0,.06.07.22.29,0,0,0,0,.06.06.11.12.12.12.11.09.12.09,0,0h0l.06,0,.1.06h.09l-.65,1.76-.12,0-.06,0,0,0h0l-.2-.12-.2-.13-.05,0,0,0h0l-.08-.07-.31-.28,0,0,0,0-.07-.07-.12-.15-.13-.15-.06-.07,0,0,0,0-.21-.3-.1-.15,0-.08-.05-.07-.18-.31-.17-.31-.16-.31-.15-.31-.08-.15-.07-.16-.27-.62-.13-.32-.06-.15,0-.08v-.06h0c-.34-.37-.32-.36-.5-.56h0l-.16-.1-.15-.1-.15-.12-.15-.11-.14-.12-.14-.13-.25-.25-.24-.27,0,0h0l-.11-.16v0l0-.08-.06-.14-.25-.58-.14-.28-.07-.14-.07-.13-.15-.26-.15-.25-.17-.24-.17-.24-.18-.23Z" transform="translate(-21.2 -22.05)"/></g></svg>