<?xml version="1.0" encoding="UTF-8" standalone="no"?>
<!DOCTYPE svg PUBLIC "-//W3C//DTD SVG 1.1//EN" "http://www.w3.org/Graphics/SVG/1.1/DTD/svg11.dtd">
<svg xmlns="http://www.w3.org/2000/svg" xmlns:xlink="http://www.w3.org/1999/xlink" version="1.1" width="469.75pt" height="132pt" viewBox="0 0 469.75 132">
<g enable-background="new">
<g id="Layer-1" data-name="Layer 1">
<clipPath id="cp0">
<path transform="matrix(1,0,0,-1,0,132)" d="M 0 91.944 L 469.75 91.944 L 469.75 132 L 0 132 Z "/>
</clipPath>
<g clip-path="url(#cp0)">
</g>
<g id="Layer-1" data-name="Layer 2">
</g>
<clipPath id="cp1">
<path transform="matrix(1,0,0,-1,0,132)" d="M 0 132 L 469.75 132 L 469.75 0 L 0 0 Z "/>
</clipPath>
<g clip-path="url(#cp1)">
<path transform="matrix(1,0,0,-1,300.75,66.0563)" d="M 0 0 C 0 -35.622 -28.877 -64.5 -64.5 -64.5 C -100.123 -64.5 -129 -35.622 -129 0 C -129 35.622 -100.123 64.5 -64.5 64.5 C -28.877 64.5 0 35.622 0 0 " fill="#5fc0df"/>
<path transform="matrix(1,0,0,-1,300.75,66.0563)" stroke-width="2" stroke-linecap="butt" stroke-miterlimit="10" stroke-linejoin="miter" fill="none" stroke="#094c71" d="M 0 0 C 0 -35.622 -28.877 -64.5 -64.5 -64.5 C -100.123 -64.5 -129 -35.622 -129 0 C -129 35.622 -100.123 64.5 -64.5 64.5 C -28.877 64.5 0 35.622 0 0 Z "/>
<path transform="matrix(1,0,0,-1,205.75,87.499698)" d="M 0 0 L 60.333 0 C 63.551 0 63.556 5 60.333 5 L 0 5 C -3.217 5 -3.223 0 0 0 " fill="#094c71"/>
<path transform="matrix(1,0,0,-1,259.0835,58.499704)" d="M 0 0 L 13.333 0 C 16.55 0 16.556 5 13.333 5 L 0 5 C -3.217 5 -3.223 0 0 0 " fill="#094c71"/>
<path transform="matrix(1,0,0,-1,199.75,58.499704)" d="M 0 0 L 13.333 0 C 16.551 0 16.556 5 13.333 5 L 0 5 C -3.217 5 -3.223 0 0 0 " fill="#094c71"/>
<path transform="matrix(1,0,0,-1,136.25,66.0563)" d="M 0 0 C 0 -35.622 -28.877 -64.5 -64.5 -64.5 C -100.123 -64.5 -129 -35.622 -129 0 C -129 35.622 -100.123 64.5 -64.5 64.5 C -28.877 64.5 0 35.622 0 0 " fill="#ec5025"/>
<path transform="matrix(1,0,0,-1,136.25,66.0563)" stroke-width="2" stroke-linecap="butt" stroke-miterlimit="10" stroke-linejoin="miter" fill="none" stroke="#360508" d="M 0 0 C 0 -35.622 -28.877 -64.5 -64.5 -64.5 C -100.123 -64.5 -129 -35.622 -129 0 C -129 35.622 -100.123 64.5 -64.5 64.5 C -28.877 64.5 0 35.622 0 0 Z "/>
<path transform="matrix(1,0,0,-1,88.4087,63.9284)" d="M 0 0 C 2.913 6.777 9.208 13.386 17.177 11.851 C 20.321 11.245 21.667 16.063 18.506 16.673 C 8.309 18.637 -.418 11.596 -4.317 2.523 C -5.574 -.401 -1.268 -2.951 0 0 " fill="#360508"/>
<path transform="matrix(1,0,0,-1,101.25,69.5417)" d="M 0 0 C 0 -4.35 -2.294 -7.875 -5.125 -7.875 C -7.956 -7.875 -10.25 -4.35 -10.25 0 C -10.25 4.35 -7.956 7.875 -5.125 7.875 C -2.294 7.875 0 4.35 0 0 " fill="#360508"/>
<path transform="matrix(1,0,0,-1,101.25,69.5417)" stroke-width="3" stroke-linecap="butt" stroke-miterlimit="10" stroke-linejoin="miter" fill="none" stroke="#360508" d="M 0 0 C 0 -4.35 -2.294 -7.875 -5.125 -7.875 C -7.956 -7.875 -10.25 -4.35 -10.25 0 C -10.25 4.35 -7.956 7.875 -5.125 7.875 C -2.294 7.875 0 4.35 0 0 Z "/>
<path transform="matrix(1,0,0,-1,59.4961,100.6647)" d="M 0 0 C 4.121 3.165 7.94 6.431 13.504 6.431 C 19.077 6.431 22.876 3.173 27.008 0 C 29.558 -1.959 32.051 2.383 29.531 4.317 C 24.646 8.069 19.975 11.431 13.504 11.431 C 7.034 11.431 2.36 8.067 -2.523 4.317 C -5.041 2.385 -2.553 -1.961 0 0 " fill="#34050a"/>
<path transform="matrix(1,0,0,-1,61.1177,61.4049)" d="M 0 0 C -3.899 9.072 -12.627 16.113 -22.825 14.149 C -25.981 13.541 -24.645 8.721 -21.496 9.327 C -13.525 10.863 -7.231 4.256 -4.317 -2.523 C -3.05 -5.472 1.258 -2.928 0 0 " fill="#360508"/>
<path transform="matrix(1,0,0,-1,43.958,69.5417)" d="M 0 0 C 0 -4.35 2.295 -7.875 5.125 -7.875 C 7.956 -7.875 10.25 -4.35 10.25 0 C 10.25 4.35 7.956 7.875 5.125 7.875 C 2.295 7.875 0 4.35 0 0 " fill="#360508"/>
<path transform="matrix(1,0,0,-1,43.958,69.5417)" stroke-width="3" stroke-linecap="butt" stroke-miterlimit="10" stroke-linejoin="miter" fill="none" stroke="#360508" d="M 0 0 C 0 -4.35 2.295 -7.875 5.125 -7.875 C 7.956 -7.875 10.25 -4.35 10.25 0 C 10.25 4.35 7.956 7.875 5.125 7.875 C 2.295 7.875 0 4.35 0 0 Z "/>
<path transform="matrix(1,0,0,-1,464.75,66.0563)" d="M 0 0 C 0 -35.622 -28.877 -64.5 -64.5 -64.5 C -100.123 -64.5 -129 -35.622 -129 0 C -129 35.622 -100.123 64.5 -64.5 64.5 C -28.877 64.5 0 35.622 0 0 " fill="#e8e968"/>
<path transform="matrix(1,0,0,-1,464.75,66.0563)" stroke-width="2" stroke-linecap="butt" stroke-miterlimit="10" stroke-linejoin="miter" fill="none" stroke="#806420" d="M 0 0 C 0 -35.622 -28.877 -64.5 -64.5 -64.5 C -100.123 -64.5 -129 -35.622 -129 0 C -129 35.622 -100.123 64.5 -64.5 64.5 C -28.877 64.5 0 35.622 0 0 Z "/>
<path transform="matrix(1,0,0,-1,426.5088,82.8415)" d="M 0 0 C -8.532 -4.115 -16.514 -7.594 -26.259 -7.605 C -36.001 -7.618 -43.993 -4.112 -52.518 0 C -55.403 1.392 -57.942 -2.918 -55.042 -4.317 C -45.722 -8.813 -36.872 -12.605 -26.259 -12.605 C -15.65 -12.605 -6.792 -8.812 2.524 -4.317 C 5.421 -2.92 2.888 1.394 0 0 " fill="#806420"/>
<path transform="matrix(1,0,0,-1,364.7422,59.267198)" d="M 0 0 C 1.101 1.722 2.781 5.526 5.091 5.526 C 7.394 5.526 9.092 1.706 10.183 0 C 11.911 -2.703 16.24 -.198 14.5 2.523 C 12.272 6.008 9.843 10.571 5.091 10.537 C .322 10.503 -2.067 6.043 -4.317 2.523 C -6.056 -.195 -1.73 -2.706 0 0 " fill="#806420"/>
<path transform="matrix(1,0,0,-1,425.4922,59.267198)" d="M 0 0 C 1.101 1.722 2.781 5.526 5.091 5.526 C 7.394 5.526 9.092 1.706 10.183 0 C 11.911 -2.703 16.24 -.198 14.5 2.523 C 12.272 6.008 9.843 10.571 5.091 10.537 C .322 10.503 -2.067 6.043 -4.317 2.523 C -6.056 -.195 -1.73 -2.706 0 0 " fill="#806420"/>
</g>
</g>
</g>
</svg>
